<?xml version="1.0" encoding="UTF-8"?>
<svg id="Layer_1" data-name="Layer 1" xmlns="http://www.w3.org/2000/svg" viewBox="0 0 89.29 21.87">
  <defs>
    <style>
      .cls-1 {
        fill: #f7acce;
      }
    </style>
  </defs>
  <path class="cls-1" d="M2.69,17.1c-1.79,0-2.69-1.05-2.69-3.16,0-.95.16-1.94.49-2.97.33-1.04.8-2.08,1.43-3.12.64-1.06,1.36-2.01,2.17-2.86.81-.85,1.67-1.56,2.59-2.15.92-.59,1.88-1.04,2.88-1.36,1-.31,2.02-.47,3.05-.47.71,0,1.34.07,1.88.21.55.14,1.01.34,1.38.62.38.27.66.6.86,1,.2.39.29.84.29,1.35,0,.7-.16,1.35-.49,1.96-.33.61-.77,1.14-1.34,1.59-.57.45-1.23.81-2,1.07-.76.27-1.58.4-2.45.41v-.11c.77-.13,1.46-.35,2.08-.64.62-.31,1.14-.68,1.57-1.12.44-.45.77-.96,1-1.53.23-.57.35-1.19.35-1.86s-.13-1.2-.39-1.59c-.25-.4-.66-.67-1.23-.83-.35.15-.7.36-1.04.64-.34.28-.62.6-.85.95-.07.1-.14.21-.21.33-.07.11-.14.25-.22.43-.08.18-.17.4-.28.66-.1.26-.23.59-.38,1-.15.4-.33.88-.54,1.45-.21.56-.45,1.23-.73,2-.5,1.38-1.02,2.58-1.56,3.6-.54,1.02-1.11,1.86-1.7,2.53-.59.66-1.21,1.16-1.87,1.48-.64.33-1.32.49-2.04.49ZM10.13,4.71c.22-.38.47-.73.75-1.06.28-.34.57-.65.88-.93.31-.28.63-.52.97-.73.34-.21.68-.39,1.02-.53-.16-.03-.32-.05-.5-.06-.17-.01-.35-.02-.55-.02-.98,0-1.95.15-2.92.46-.97.31-1.9.75-2.79,1.32-.89.57-1.73,1.27-2.52,2.08-.78.81-1.48,1.73-2.09,2.74-.6.99-1.05,1.99-1.37,3.01-.31,1.01-.46,2-.46,2.96s.17,1.65.5,2.09c.33.44.85.65,1.56.65.34,0,.65-.04.95-.13.29-.08.57-.22.84-.42.27-.2.54-.45.79-.76.25-.31.51-.7.77-1.16.27-.46.54-1,.81-1.62.28-.62.58-1.33.9-2.13.28-.72.52-1.34.73-1.87.21-.53.4-.99.56-1.38.16-.38.29-.71.4-.97.11-.26.21-.48.3-.66.09-.19.17-.35.24-.49.07-.14.15-.27.22-.4ZM17.3,11.04c.23-.87.56-1.68,1-2.42.44-.74.95-1.38,1.51-1.92.57-.55,1.19-.97,1.86-1.28.67-.31,1.34-.46,2.02-.46.55,0,1.01.09,1.38.28.38.18.68.43.91.74.23.31.39.67.49,1.08.1.41.15.84.15,1.29,0,.49-.05.98-.15,1.46-.09.49-.21.95-.36,1.4-.09.28-.2.55-.31.81-.12.26-.24.51-.37.76.09.21.22.39.4.53.18.13.42.2.73.2.18,0,.38-.03.59-.09.21-.06.42-.15.62-.28.21-.14.42-.31.62-.53.21-.21.4-.48.58-.79l.51-.9.26.19-.51.9c-.25.44-.5.78-.76,1.04-.25.25-.5.44-.74.57-.24.13-.47.21-.68.25-.21.03-.39.05-.54.05-.31,0-.58-.04-.82-.12-.24-.08-.46-.2-.64-.33-.33.52-.69.99-1.08,1.42-.39.42-.8.78-1.24,1.08-.44.3-.89.53-1.36.69-.46.16-.92.24-1.39.24s-.88-.08-1.25-.24c-.36-.17-.67-.41-.93-.72-.25-.31-.45-.69-.59-1.14-.14-.46-.2-.97-.2-1.53,0-.36.03-.72.08-1.09.05-.38.13-.75.22-1.12ZM20.12,16.42c.38,0,.76-.08,1.14-.25.39-.18.77-.42,1.14-.74.38-.32.74-.7,1.08-1.15.35-.46.67-.96.97-1.51-.08-.15-.14-.3-.18-.46-.03-.16-.05-.33-.05-.5,0-.19.03-.37.08-.56.05-.19.13-.36.23-.52.11-.16.25-.31.41-.44.17-.13.36-.23.59-.31.1-.36.18-.74.24-1.13.07-.4.1-.79.1-1.17,0-.31-.03-.61-.09-.89-.06-.29-.16-.53-.3-.74-.14-.21-.33-.37-.57-.5-.23-.12-.53-.19-.88-.19-.51,0-1.01.14-1.51.41-.49.27-.97.65-1.42,1.14-.44.49-.85,1.07-1.21,1.76-.36.68-.67,1.44-.91,2.27-.16.55-.29,1.11-.38,1.67-.08.55-.13,1.06-.13,1.51,0,1.54.54,2.3,1.63,2.3ZM36.77,5.84c0-.1-.07-.21-.21-.31-.13-.11-.32-.17-.58-.17s-.54.08-.85.24c-.31.16-.65.44-1.04.84-.39.4-.83.95-1.32,1.65-.48.7-1.03,1.59-1.64,2.67l-.49.86-1.85,5.1h-1.45l4.22-11.57h1.45l-1.71,4.69c.53-.92,1.02-1.69,1.46-2.3.44-.62.85-1.13,1.23-1.5.38-.38.73-.66,1.06-.82.33-.16.66-.24.98-.24.43,0,.76.13,1.01.38.25.25.37.59.37,1,0,.17-.02.33-.07.49-.04.15-.1.28-.19.39-.08.11-.18.2-.29.26-.12.07-.25.1-.39.1-.1,0-.21-.02-.31-.05-.1-.03-.19-.08-.26-.15-.08-.07-.14-.16-.2-.25-.05-.1-.07-.21-.07-.34,0-.1.02-.21.05-.31.04-.11.09-.21.16-.28.07-.08.14-.15.23-.21.09-.05.19-.08.3-.08.07,0,.14,0,.21.02.01.01.03.03.05.04.03,0,.05,0,.06,0,.05,0,.08-.05.08-.14ZM37.8,5.15h2.85l.93-2.56h1.45l-.93,2.56h2.93v.39h-3.08l-2.34,6.45c-.09.25-.18.51-.27.78-.08.27-.16.53-.23.79-.07.25-.12.5-.17.74-.04.23-.06.45-.06.64,0,.45.12.81.36,1.07.25.27.62.4,1.11.4s.95-.09,1.41-.27c.46-.18.9-.46,1.35-.84s.88-.85,1.32-1.43c.44-.58.88-1.26,1.32-2.05l.51-.9.26.19-.51.9c-.51.91-1.01,1.68-1.49,2.3-.48.62-.96,1.12-1.44,1.5-.47.38-.95.66-1.44.83-.48.17-.98.25-1.5.25-.4,0-.75-.06-1.05-.19-.31-.12-.56-.29-.76-.51-.21-.22-.36-.49-.47-.8-.11-.31-.17-.66-.17-1.05,0-.34.04-.71.12-1.11.08-.4.2-.83.36-1.27l2.34-6.45h-2.71v-.39ZM45.51,5.15h2.84l.4-1.09c.48-1.31,1.09-2.31,1.85-3.01.76-.7,1.6-1.04,2.53-1.04.29,0,.56.04.81.12.25.07.46.18.63.31.18.14.31.3.41.49.1.18.16.38.16.61,0,.31-.08.56-.23.73-.16.17-.37.25-.64.25-.22,0-.4-.06-.53-.19-.12-.13-.19-.31-.19-.53,0-.21.06-.38.17-.51.11-.13.26-.2.44-.2.06,0,.12.01.2.04.01,0,.03.01.05.02.02,0,.04,0,.05,0,.06,0,.09-.04.09-.12,0-.1-.04-.18-.13-.25-.08-.07-.18-.13-.31-.18-.12-.05-.26-.09-.42-.12-.15-.03-.3-.04-.44-.04-.31,0-.6.07-.87.2s-.52.34-.76.63c-.24.28-.48.64-.7,1.09-.23.44-.46.98-.68,1.6l-.43,1.17h2.95v.39h-3.09l-5.94,16.33h-1.45l5.94-16.33h-2.7v-.39ZM53.42,11.04c.23-.87.56-1.68,1-2.42.44-.74.95-1.38,1.51-1.92.57-.55,1.19-.97,1.86-1.28.67-.31,1.34-.46,2.02-.46.55,0,1.01.09,1.38.28.38.18.68.43.91.74.23.31.39.67.49,1.08.1.41.15.84.15,1.29,0,.49-.05.98-.15,1.46-.09.49-.21.95-.36,1.4-.09.28-.2.55-.31.81-.12.26-.24.51-.37.76.09.21.22.39.4.53.18.13.42.2.73.2.18,0,.38-.03.59-.09.21-.06.42-.15.62-.28.21-.14.42-.31.62-.53.21-.21.4-.48.58-.79l.51-.9.26.19-.51.9c-.25.44-.5.78-.76,1.04-.25.25-.5.44-.74.57-.24.13-.47.21-.68.25-.21.03-.39.05-.54.05-.31,0-.58-.04-.82-.12-.24-.08-.46-.2-.64-.33-.33.52-.69.99-1.08,1.42-.39.42-.8.78-1.24,1.08-.44.3-.89.53-1.36.69-.46.16-.92.24-1.39.24s-.88-.08-1.25-.24c-.36-.17-.67-.41-.93-.72-.25-.31-.45-.69-.59-1.14-.14-.46-.21-.97-.21-1.53,0-.36.03-.72.08-1.09.05-.38.13-.75.22-1.12ZM56.23,16.42c.38,0,.76-.08,1.14-.25.39-.18.77-.42,1.14-.74.38-.32.74-.7,1.08-1.15.35-.46.67-.96.97-1.51-.08-.15-.14-.3-.18-.46-.03-.16-.05-.33-.05-.5,0-.19.03-.37.08-.56.05-.19.13-.36.23-.52.11-.16.25-.31.41-.44.17-.13.36-.23.59-.31.1-.36.18-.74.24-1.13.07-.4.1-.79.1-1.17,0-.31-.03-.61-.09-.89-.06-.29-.16-.53-.3-.74-.14-.21-.33-.37-.57-.5-.23-.12-.53-.19-.88-.19-.51,0-1.01.14-1.51.41-.49.27-.97.65-1.42,1.14-.44.49-.85,1.07-1.21,1.76-.36.68-.67,1.44-.91,2.27-.16.55-.29,1.11-.38,1.67-.08.55-.13,1.06-.13,1.51,0,1.54.54,2.3,1.63,2.3ZM69.56,0h1.46l-4.37,11.98c-.09.25-.18.51-.27.78-.09.26-.17.52-.24.78-.07.25-.12.5-.17.74-.04.23-.06.45-.06.65,0,.45.12.81.35,1.07.24.27.61.4,1.11.4.44,0,.86-.09,1.26-.28.41-.19.81-.47,1.21-.85.4-.38.81-.86,1.21-1.44.4-.58.82-1.25,1.26-2.02l.51-.9.26.19-.51.9c-.48.84-.93,1.57-1.37,2.19-.43.61-.86,1.12-1.3,1.52-.43.4-.87.69-1.32.89-.45.2-.93.29-1.44.29-.4,0-.75-.06-1.05-.19-.3-.12-.55-.29-.75-.51-.21-.22-.36-.49-.47-.8-.1-.31-.16-.66-.16-1.05,0-.34.04-.71.12-1.1.08-.4.2-.83.36-1.28l4.36-11.98ZM74.92,5.15h1.45l-2.49,6.84c-.09.25-.18.51-.27.78-.09.26-.17.52-.24.78-.07.25-.12.5-.17.74-.04.23-.06.45-.06.65,0,.45.12.81.35,1.07.24.27.61.4,1.11.4.44,0,.86-.09,1.26-.28.41-.19.81-.47,1.21-.85.4-.38.81-.86,1.21-1.44.4-.58.82-1.25,1.26-2.02l.51-.9.26.19-.51.9c-.48.84-.93,1.57-1.37,2.19-.43.61-.86,1.12-1.3,1.52-.43.4-.87.69-1.32.89-.45.2-.93.29-1.44.29-.4,0-.75-.06-1.05-.19-.3-.12-.55-.29-.75-.51-.21-.22-.36-.49-.47-.8-.1-.31-.16-.66-.16-1.05,0-.34.04-.71.13-1.11.08-.4.2-.83.35-1.27l2.49-6.84ZM75.7,2.59c0-.23.08-.42.23-.59.16-.16.36-.24.59-.24s.42.08.58.24c.16.16.24.35.24.58,0,.11-.02.22-.07.32-.04.1-.1.18-.18.25-.07.07-.16.13-.26.18-.1.04-.21.06-.32.06-.23,0-.42-.07-.58-.22-.16-.16-.23-.35-.23-.58ZM79.98,11.04c.23-.87.56-1.68,1-2.42.44-.74.95-1.38,1.51-1.92.57-.55,1.19-.97,1.86-1.28.67-.31,1.34-.46,2.02-.46.55,0,1.01.09,1.38.28.38.18.68.43.91.74.23.31.39.67.49,1.08.1.41.15.84.15,1.29,0,.49-.05.98-.15,1.46-.09.49-.21.95-.36,1.4-.28.82-.64,1.58-1.08,2.28-.44.69-.94,1.29-1.48,1.8-.54.51-1.12.9-1.73,1.19-.61.28-1.22.42-1.84.42-.46,0-.88-.08-1.25-.24-.36-.17-.67-.41-.93-.72-.25-.31-.45-.69-.59-1.14-.14-.46-.21-.97-.21-1.53,0-.36.03-.72.08-1.09.05-.38.13-.75.22-1.12ZM82.79,16.42c.47,0,.94-.13,1.43-.4.49-.27.96-.64,1.41-1.11.46-.48.88-1.05,1.27-1.72.39-.66.73-1.39,1.01-2.19.08-.21.15-.46.22-.72.08-.27.15-.54.21-.83.07-.29.12-.59.16-.89.04-.31.06-.6.06-.89,0-.31-.03-.61-.09-.89-.06-.29-.16-.53-.3-.74-.14-.21-.33-.37-.57-.5-.23-.12-.53-.19-.88-.19-.51,0-1.01.14-1.51.41-.49.27-.97.65-1.42,1.14-.44.49-.85,1.07-1.21,1.76-.36.68-.67,1.44-.91,2.27-.16.55-.29,1.11-.38,1.67-.08.55-.13,1.06-.13,1.51,0,1.54.54,2.3,1.63,2.3Z"/>
</svg>