<?xml version="1.0" encoding="UTF-8"?>
<svg id="Layer_1" data-name="Layer 1" xmlns="http://www.w3.org/2000/svg" viewBox="0 0 107.14 26.24">
  <defs>
    <style>
      .cls-1 {
        fill: #ff2196;
      }
    </style>
  </defs>
  <path class="cls-1" d="M3.22,20.52c-2.15,0-3.22-1.27-3.22-3.8,0-1.14.2-2.33.59-3.56.39-1.24.96-2.49,1.71-3.75.77-1.27,1.63-2.42,2.6-3.43.97-1.02,2-1.88,3.11-2.58,1.1-.71,2.25-1.25,3.46-1.63,1.2-.38,2.42-.56,3.66-.56.85,0,1.61.09,2.26.26.66.16,1.21.41,1.65.74.45.32.8.72,1.03,1.2.23.47.35,1.01.35,1.62,0,.84-.2,1.62-.59,2.36-.39.73-.93,1.36-1.61,1.91-.68.54-1.48.97-2.4,1.29-.91.32-1.89.48-2.94.49v-.13c.92-.16,1.75-.41,2.5-.77.74-.37,1.37-.82,1.89-1.35.52-.54.92-1.15,1.2-1.84.28-.69.42-1.43.42-2.23s-.16-1.44-.47-1.91c-.3-.48-.8-.81-1.48-1-.42.18-.84.44-1.25.77-.41.34-.75.71-1.02,1.14-.09.12-.17.26-.25.4-.08.13-.17.3-.27.52-.09.21-.21.48-.34.8-.12.31-.28.71-.46,1.2-.18.48-.39,1.05-.64,1.73-.25.67-.54,1.47-.88,2.4-.6,1.66-1.23,3.1-1.87,4.32-.65,1.22-1.33,2.23-2.04,3.04-.71.8-1.46,1.39-2.24,1.78-.77.39-1.59.59-2.45.59ZM12.15,5.65c.27-.45.57-.88.9-1.28.34-.41.69-.78,1.05-1.11.38-.34.76-.63,1.16-.88.41-.26.81-.47,1.22-.63-.19-.03-.39-.05-.6-.07-.2-.02-.42-.02-.66-.02-1.17,0-2.34.18-3.5.55-1.16.37-2.28.89-3.35,1.58-1.07.69-2.08,1.52-3.02,2.5-.94.98-1.77,2.07-2.51,3.29-.72,1.19-1.27,2.39-1.64,3.61-.37,1.21-.55,2.39-.55,3.55s.2,1.98.6,2.51c.4.52,1.02.79,1.88.79.41,0,.79-.05,1.14-.15.35-.1.69-.27,1.01-.5.33-.23.64-.54.95-.91.3-.38.61-.84.93-1.39.32-.55.64-1.2.97-1.95.34-.74.7-1.59,1.08-2.55.34-.86.63-1.61.88-2.24.26-.64.48-1.19.67-1.65.19-.46.35-.85.48-1.16s.25-.58.36-.8c.11-.23.21-.42.29-.59.09-.16.18-.32.27-.48ZM20.77,13.25c.27-1.05.67-2.02,1.2-2.91.53-.89,1.14-1.66,1.82-2.31.69-.66,1.43-1.17,2.23-1.54.8-.37,1.61-.55,2.43-.55.66,0,1.21.11,1.65.34.45.22.82.52,1.09.89.27.38.47.81.59,1.3.12.49.18,1.01.18,1.55,0,.59-.06,1.17-.18,1.76-.11.59-.25,1.14-.43,1.68-.11.34-.23.66-.38.97s-.29.62-.45.91c.11.26.27.47.48.63.21.16.5.23.88.23.22,0,.45-.04.7-.11.25-.07.5-.18.75-.34.26-.16.51-.38.75-.63.25-.26.48-.57.69-.95l.61-1.08.32.22-.61,1.08c-.3.52-.6.94-.91,1.24-.3.3-.6.52-.89.68-.29.16-.56.26-.82.3-.25.04-.46.06-.64.06-.37,0-.7-.05-.98-.14-.29-.1-.55-.23-.77-.4-.39.62-.82,1.19-1.3,1.7-.47.51-.96.94-1.49,1.3-.52.36-1.07.64-1.63.83-.55.2-1.11.29-1.66.29s-1.05-.1-1.5-.29c-.44-.2-.81-.49-1.11-.87-.3-.38-.54-.83-.7-1.37-.16-.55-.25-1.16-.25-1.84,0-.43.03-.87.09-1.31.06-.45.15-.9.27-1.35ZM24.14,19.7c.45,0,.91-.1,1.37-.3.47-.21.93-.51,1.37-.89.45-.38.89-.84,1.3-1.38.42-.55.81-1.15,1.16-1.82-.09-.18-.16-.36-.21-.55-.04-.2-.06-.39-.06-.6,0-.23.03-.45.09-.67.06-.23.16-.43.28-.62.13-.2.3-.37.49-.53.2-.16.44-.28.7-.38.12-.44.21-.89.29-1.36.08-.48.12-.95.12-1.41,0-.38-.04-.73-.11-1.07-.07-.34-.19-.64-.36-.89-.16-.25-.39-.45-.68-.6-.28-.15-.63-.22-1.05-.22-.61,0-1.21.16-1.82.49-.59.32-1.16.78-1.7,1.37-.53.59-1.02,1.29-1.45,2.11-.44.82-.8,1.73-1.09,2.72-.2.66-.35,1.33-.46,2-.1.66-.15,1.27-.15,1.82,0,1.84.65,2.77,1.96,2.77ZM44.12,7.01c0-.12-.08-.25-.25-.38-.16-.13-.39-.2-.69-.2s-.65.1-1.02.29c-.37.19-.79.52-1.25,1.01-.47.48-1,1.14-1.58,1.98-.58.84-1.23,1.9-1.97,3.2l-.59,1.03-2.21,6.12h-1.75l5.06-13.89h1.73l-2.05,5.63c.64-1.1,1.23-2.02,1.76-2.77.53-.75,1.02-1.35,1.48-1.8.45-.46.88-.79,1.28-.98.4-.2.79-.29,1.17-.29.52,0,.92.15,1.21.46.3.3.45.7.45,1.2,0,.2-.03.4-.08.59-.05.18-.12.34-.22.47-.09.13-.21.24-.35.32-.14.08-.3.12-.47.12-.12,0-.25-.02-.38-.06-.12-.04-.22-.1-.32-.18-.09-.09-.17-.19-.23-.3-.05-.12-.08-.25-.08-.41,0-.12.02-.25.06-.38.05-.13.11-.25.19-.34.08-.1.17-.18.28-.25.11-.06.23-.09.36-.09.09,0,.17,0,.25.02.02.02.04.03.06.05.03,0,.05.01.07.01.06,0,.09-.05.09-.16ZM45.36,6.18h3.42l1.11-3.07h1.73l-1.11,3.07h3.52v.47h-3.69l-2.81,7.73c-.11.3-.22.62-.33.94-.1.32-.2.64-.28.95-.08.3-.14.6-.2.89-.05.28-.07.54-.07.77,0,.54.14.97.43,1.29.3.32.74.48,1.34.48s1.14-.11,1.69-.33c.55-.22,1.09-.55,1.62-1.01.53-.45,1.06-1.02,1.58-1.71.52-.7,1.05-1.52,1.58-2.46l.61-1.08.32.22-.61,1.08c-.62,1.09-1.21,2.02-1.79,2.77-.58.74-1.15,1.34-1.72,1.8-.56.46-1.14.79-1.72,1-.58.2-1.18.3-1.8.3-.48,0-.9-.07-1.27-.22-.37-.14-.67-.34-.91-.61-.25-.27-.44-.59-.56-.96-.13-.38-.2-.79-.2-1.25,0-.41.05-.85.14-1.34.09-.48.24-.99.43-1.52l2.81-7.73h-3.25v-.47ZM54.61,6.18h3.41l.48-1.31c.57-1.57,1.31-2.77,2.21-3.61.91-.84,1.92-1.25,3.04-1.25.35,0,.68.05.97.14.3.09.55.21.76.38.21.16.38.36.49.59.12.22.19.46.19.73,0,.38-.09.67-.28.88-.19.2-.45.3-.77.3-.27,0-.48-.07-.63-.22-.15-.16-.22-.37-.22-.63,0-.25.07-.45.2-.61.13-.16.31-.23.53-.23.07,0,.15.02.23.05.02,0,.04.02.06.02.02,0,.04.01.06.01.07,0,.11-.05.11-.14,0-.12-.05-.22-.15-.3-.09-.09-.22-.16-.38-.21-.15-.06-.32-.11-.5-.14-.18-.03-.36-.05-.53-.05-.38,0-.72.08-1.04.23s-.62.41-.91.75c-.29.34-.57.77-.84,1.31-.27.53-.55,1.17-.82,1.92l-.52,1.41h3.54v.47h-3.7l-7.12,19.59h-1.73l7.12-19.59h-3.23v-.47ZM64.1,13.25c.27-1.05.67-2.02,1.2-2.91.53-.89,1.14-1.66,1.82-2.31.69-.66,1.43-1.17,2.23-1.54.8-.37,1.61-.55,2.43-.55.66,0,1.21.11,1.65.34.45.22.82.52,1.09.89s.47.81.59,1.3c.12.49.18,1.01.18,1.55,0,.59-.06,1.17-.18,1.76-.11.59-.25,1.14-.43,1.68-.11.34-.23.66-.38.97-.14.31-.29.62-.45.91.11.26.27.47.48.63.21.16.5.23.88.23.22,0,.45-.04.7-.11.25-.07.5-.18.75-.34.26-.16.51-.38.75-.63.25-.26.48-.57.69-.95l.61-1.08.32.22-.61,1.08c-.3.52-.6.94-.91,1.24-.3.3-.6.52-.89.68-.29.16-.56.26-.82.3-.25.04-.46.06-.64.06-.37,0-.7-.05-.98-.14-.29-.1-.55-.23-.77-.4-.39.62-.82,1.19-1.3,1.7-.47.51-.96.94-1.49,1.3-.52.36-1.07.64-1.63.83-.55.2-1.11.29-1.66.29s-1.05-.1-1.5-.29c-.44-.2-.81-.49-1.11-.87s-.54-.83-.7-1.37c-.16-.55-.25-1.16-.25-1.84,0-.43.03-.87.09-1.31.06-.45.15-.9.27-1.35ZM67.48,19.7c.45,0,.91-.1,1.37-.3.47-.21.93-.51,1.37-.89.45-.38.89-.84,1.3-1.38.42-.55.81-1.15,1.16-1.82-.09-.18-.16-.36-.21-.55-.04-.2-.06-.39-.06-.6,0-.23.03-.45.09-.67.06-.23.16-.43.28-.62.13-.2.3-.37.49-.53.2-.16.44-.28.7-.38.12-.44.21-.89.29-1.36.08-.48.12-.95.12-1.41,0-.38-.04-.73-.11-1.07-.07-.34-.19-.64-.36-.89-.16-.25-.39-.45-.68-.6-.28-.15-.63-.22-1.05-.22-.61,0-1.21.16-1.82.49-.59.32-1.16.78-1.7,1.37-.53.59-1.02,1.29-1.45,2.11-.44.82-.8,1.73-1.09,2.72-.2.66-.35,1.33-.46,2-.1.66-.15,1.27-.15,1.82,0,1.84.65,2.77,1.96,2.77ZM83.47,0h1.75l-5.24,14.38c-.11.3-.22.62-.33.94-.11.31-.21.62-.29.94-.08.3-.14.6-.2.89-.05.28-.07.54-.07.79,0,.54.14.97.42,1.29.29.32.73.48,1.34.48.52,0,1.03-.11,1.51-.34.49-.23.98-.57,1.45-1.02.48-.46.97-1.04,1.45-1.72.48-.7.99-1.5,1.51-2.43l.61-1.08.32.22-.61,1.08c-.57,1.01-1.12,1.88-1.64,2.63-.52.73-1.04,1.34-1.56,1.83-.52.48-1.04.83-1.58,1.07s-1.11.35-1.72.35c-.48,0-.9-.07-1.27-.22-.36-.14-.66-.34-.9-.61-.25-.27-.44-.59-.56-.96s-.19-.79-.19-1.25c0-.41.05-.85.14-1.32.09-.48.24-1,.43-1.54l5.23-14.38ZM89.91,6.18h1.73l-2.99,8.2c-.11.3-.22.62-.33.94-.11.31-.21.62-.29.94-.08.3-.14.6-.2.89-.05.28-.07.54-.07.79,0,.54.14.97.42,1.29.29.32.73.48,1.34.48.52,0,1.03-.11,1.51-.34.49-.23.98-.57,1.45-1.02.48-.46.97-1.04,1.45-1.72.48-.7.99-1.5,1.51-2.43l.61-1.08.32.22-.61,1.08c-.57,1.01-1.12,1.88-1.64,2.63-.52.73-1.04,1.34-1.56,1.83-.52.48-1.04.83-1.58,1.07-.54.23-1.11.35-1.72.35-.48,0-.9-.07-1.27-.22-.36-.14-.66-.34-.9-.61-.25-.27-.44-.59-.56-.96s-.19-.79-.19-1.25c0-.41.05-.85.15-1.34.09-.48.23-.99.42-1.52l2.99-8.2ZM90.84,3.11c0-.27.09-.51.28-.7.2-.2.43-.29.7-.29s.5.1.69.29c.2.19.29.42.29.69,0,.13-.03.26-.08.39-.05.12-.12.22-.21.3-.09.09-.19.16-.32.21-.12.05-.25.07-.39.07-.27,0-.5-.09-.69-.27-.19-.19-.28-.42-.28-.69ZM95.98,13.25c.27-1.05.67-2.02,1.2-2.91.53-.89,1.14-1.66,1.82-2.31.69-.66,1.43-1.17,2.23-1.54.81-.37,1.61-.55,2.43-.55.66,0,1.21.11,1.65.34.45.22.82.52,1.09.89.27.38.47.81.59,1.3.12.49.18,1.01.18,1.55,0,.59-.06,1.17-.18,1.76-.11.59-.25,1.14-.43,1.68-.34.98-.77,1.89-1.3,2.73-.53.83-1.12,1.55-1.78,2.16-.65.61-1.34,1.09-2.07,1.43-.73.34-1.47.5-2.2.5-.55,0-1.05-.1-1.5-.29-.44-.2-.81-.49-1.11-.87s-.54-.83-.7-1.37c-.16-.55-.25-1.16-.25-1.84,0-.43.03-.87.09-1.31.06-.45.15-.9.27-1.35ZM99.35,19.7c.56,0,1.13-.16,1.71-.48.59-.32,1.15-.77,1.69-1.34.55-.58,1.06-1.27,1.52-2.06.47-.8.87-1.67,1.21-2.62.09-.26.18-.55.27-.87.09-.32.18-.65.26-1,.08-.35.14-.71.19-1.07.05-.37.07-.72.07-1.07,0-.38-.04-.73-.11-1.07-.07-.34-.19-.64-.36-.89-.16-.25-.39-.45-.68-.6-.28-.15-.63-.22-1.06-.22-.61,0-1.21.16-1.82.49-.59.32-1.16.78-1.7,1.37-.53.59-1.02,1.29-1.45,2.11-.44.82-.8,1.73-1.09,2.72-.2.66-.35,1.33-.46,2-.1.66-.15,1.27-.15,1.82,0,1.84.65,2.77,1.96,2.77Z"/>
</svg>