<?xml version="1.0" encoding="UTF-8"?>
<svg id="Layer_1" data-name="Layer 1" xmlns="http://www.w3.org/2000/svg" viewBox="0 0 285.72 69.97">
  <defs>
    <style>
      .cls-1 {
        fill: #cb0028;
      }
    </style>
  </defs>
  <path class="cls-1" d="M8.59,54.72c-5.73,0-8.59-3.38-8.59-10.12,0-3.04.52-6.21,1.56-9.5,1.04-3.31,2.56-6.65,4.56-10,2.04-3.4,4.35-6.45,6.94-9.16s5.34-5,8.28-6.88c2.94-1.9,6.01-3.34,9.22-4.34,3.21-1,6.46-1.5,9.75-1.5,2.27,0,4.28.23,6.03.69,1.75.44,3.22,1.09,4.41,1.97,1.21.85,2.12,1.92,2.75,3.19.62,1.25.94,2.69.94,4.31,0,2.23-.52,4.32-1.56,6.28-1.04,1.94-2.47,3.64-4.28,5.09-1.81,1.44-3.95,2.58-6.41,3.44-2.44.85-5.05,1.29-7.84,1.31v-.34c2.46-.42,4.68-1.1,6.66-2.06,1.98-.98,3.66-2.18,5.03-3.59,1.4-1.44,2.46-3.07,3.19-4.91.75-1.83,1.12-3.81,1.12-5.94s-.42-3.84-1.25-5.09c-.81-1.27-2.12-2.16-3.94-2.66-1.12.48-2.24,1.17-3.34,2.06-1.08.9-1.99,1.91-2.72,3.03-.23.33-.45.69-.66,1.06-.21.35-.45.81-.72,1.38-.25.56-.55,1.27-.91,2.12-.33.83-.74,1.9-1.22,3.19-.48,1.27-1.05,2.81-1.72,4.62-.67,1.79-1.45,3.93-2.34,6.41-1.6,4.42-3.27,8.26-5,11.53-1.73,3.25-3.54,5.95-5.44,8.09-1.9,2.12-3.89,3.71-5.97,4.75-2.06,1.04-4.24,1.56-6.53,1.56ZM32.41,15.06c.71-1.21,1.51-2.34,2.41-3.41.9-1.08,1.83-2.07,2.81-2.97,1-.9,2.03-1.68,3.09-2.34,1.08-.69,2.17-1.25,3.25-1.69-.5-.08-1.03-.15-1.59-.19-.54-.04-1.12-.06-1.75-.06-3.12,0-6.24.49-9.34,1.47-3.1.98-6.08,2.39-8.94,4.22-2.85,1.83-5.54,4.05-8.06,6.66-2.5,2.6-4.73,5.53-6.69,8.78-1.92,3.17-3.38,6.38-4.38,9.62-.98,3.23-1.47,6.39-1.47,9.47s.53,5.29,1.59,6.69,2.73,2.09,5,2.09c1.08,0,2.09-.14,3.03-.41s1.83-.72,2.69-1.34c.88-.62,1.72-1.44,2.53-2.44.81-1,1.64-2.24,2.47-3.72.85-1.48,1.72-3.21,2.59-5.19.9-1.98,1.85-4.25,2.88-6.81.9-2.29,1.68-4.28,2.34-5.97.69-1.71,1.28-3.18,1.78-4.41s.93-2.26,1.28-3.09c.35-.83.68-1.54.97-2.12.29-.6.55-1.12.78-1.56.23-.44.47-.86.72-1.28ZM55.38,35.34c.73-2.79,1.79-5.38,3.19-7.75,1.42-2.38,3.03-4.43,4.84-6.16,1.83-1.75,3.81-3.11,5.94-4.09,2.15-.98,4.3-1.47,6.47-1.47,1.75,0,3.22.3,4.41.91,1.21.58,2.18,1.38,2.91,2.38s1.25,2.16,1.56,3.47.47,2.69.47,4.12c0,1.56-.16,3.12-.47,4.69-.29,1.56-.68,3.05-1.16,4.47-.29.9-.62,1.76-1,2.59s-.77,1.65-1.19,2.44c.29.69.72,1.25,1.28,1.69.56.42,1.34.62,2.34.62.58,0,1.21-.09,1.88-.28.67-.19,1.33-.49,2-.91.69-.44,1.35-1,2-1.69.67-.69,1.28-1.53,1.84-2.53l1.62-2.88.84.59-1.62,2.88c-.79,1.4-1.6,2.5-2.44,3.31-.81.79-1.6,1.4-2.38,1.81-.77.42-1.5.69-2.19.81-.67.1-1.24.16-1.72.16-.98,0-1.85-.12-2.62-.38-.77-.27-1.46-.62-2.06-1.06-1.04,1.67-2.2,3.18-3.47,4.53-1.25,1.35-2.57,2.51-3.97,3.47-1.4.96-2.84,1.7-4.34,2.22-1.48.52-2.96.78-4.44.78s-2.81-.26-4-.78c-1.17-.54-2.16-1.31-2.97-2.31s-1.44-2.22-1.88-3.66c-.44-1.46-.66-3.09-.66-4.91,0-1.15.08-2.31.25-3.5.17-1.21.41-2.41.72-3.59ZM64.38,52.53c1.21,0,2.43-.27,3.66-.81,1.25-.56,2.47-1.35,3.66-2.38,1.21-1.02,2.36-2.25,3.47-3.69,1.12-1.46,2.16-3.07,3.09-4.84-.25-.48-.44-.97-.56-1.47-.1-.52-.16-1.05-.16-1.59,0-.6.08-1.2.25-1.78.17-.6.42-1.16.75-1.66.35-.52.79-.99,1.31-1.41.54-.42,1.17-.75,1.88-1,.31-1.17.57-2.38.78-3.62.21-1.27.31-2.52.31-3.75,0-1-.09-1.95-.28-2.84-.19-.92-.51-1.71-.97-2.38-.44-.67-1.04-1.2-1.81-1.59-.75-.4-1.69-.59-2.81-.59-1.62,0-3.24.44-4.84,1.31-1.58.85-3.09,2.07-4.53,3.66-1.42,1.56-2.71,3.44-3.88,5.62-1.17,2.19-2.14,4.6-2.91,7.25-.52,1.77-.93,3.55-1.22,5.34-.27,1.77-.41,3.39-.41,4.84,0,4.92,1.74,7.38,5.22,7.38ZM117.66,18.69c0-.33-.22-.67-.66-1-.42-.35-1.03-.53-1.84-.53s-1.74.26-2.72.78c-.98.5-2.09,1.4-3.34,2.69s-2.66,3.05-4.22,5.28c-1.54,2.23-3.29,5.07-5.25,8.53l-1.56,2.75-5.91,16.31h-4.66l13.5-37.03h4.62l-5.47,15c1.71-2.94,3.27-5.4,4.69-7.38,1.42-2,2.73-3.6,3.94-4.81,1.21-1.23,2.34-2.1,3.41-2.62,1.06-.52,2.1-.78,3.12-.78,1.38,0,2.45.41,3.22,1.22.79.81,1.19,1.88,1.19,3.19,0,.54-.07,1.06-.22,1.56-.12.48-.32.9-.59,1.25-.25.35-.56.64-.94.84s-.79.31-1.25.31c-.33,0-.67-.05-1-.16-.31-.1-.59-.26-.84-.47-.25-.23-.46-.5-.62-.81-.15-.31-.22-.68-.22-1.09,0-.33.05-.67.16-1,.12-.35.29-.66.5-.91.21-.27.46-.49.75-.66.29-.17.61-.25.97-.25.23,0,.45.02.66.06.04.04.09.08.16.12.08.02.15.03.19.03.17,0,.25-.15.25-.44ZM120.97,16.47h9.12l2.97-8.19h4.63l-2.97,8.19h9.38v1.25h-9.84l-7.5,20.62c-.29.81-.58,1.65-.88,2.5-.27.85-.52,1.7-.75,2.53-.21.81-.39,1.6-.53,2.38-.12.75-.19,1.44-.19,2.06,0,1.44.39,2.58,1.16,3.44.79.85,1.98,1.28,3.56,1.28s3.04-.29,4.5-.88c1.46-.58,2.9-1.48,4.31-2.69,1.42-1.21,2.82-2.73,4.22-4.56,1.4-1.85,2.8-4.04,4.22-6.56l1.62-2.88.84.59-1.62,2.88c-1.65,2.92-3.24,5.38-4.78,7.38-1.54,1.98-3.07,3.58-4.59,4.81-1.5,1.23-3.03,2.11-4.59,2.66-1.54.54-3.15.81-4.81.81-1.27,0-2.4-.2-3.38-.59-.98-.38-1.79-.92-2.44-1.62-.67-.71-1.17-1.56-1.5-2.56-.35-1-.53-2.11-.53-3.34,0-1.08.12-2.27.38-3.56.25-1.29.63-2.65,1.16-4.06l7.5-20.62h-8.66v-1.25ZM145.62,16.47h9.09l1.28-3.5c1.52-4.19,3.49-7.4,5.91-9.63,2.42-2.23,5.11-3.34,8.09-3.34.94,0,1.8.12,2.59.38.79.23,1.47.56,2.03,1s1,.96,1.31,1.56c.33.58.5,1.23.5,1.94,0,1-.25,1.78-.75,2.34-.5.54-1.19.81-2.06.81-.71,0-1.27-.2-1.69-.59-.4-.42-.59-.98-.59-1.69,0-.67.18-1.21.53-1.62.35-.42.82-.62,1.41-.62.19,0,.4.04.62.12.04.02.09.04.16.06.06.02.12.03.16.03.19,0,.28-.12.28-.38,0-.31-.13-.58-.41-.81-.25-.23-.58-.42-1-.56-.4-.17-.84-.29-1.34-.38-.48-.08-.95-.12-1.41-.12-1,0-1.93.21-2.78.62-.85.42-1.67,1.08-2.44,2-.77.9-1.52,2.06-2.25,3.5-.73,1.42-1.46,3.13-2.19,5.13l-1.38,3.75h9.44v1.25h-9.88l-19,52.25h-4.62l19-52.25h-8.62v-1.25ZM170.94,35.34c.73-2.79,1.79-5.38,3.19-7.75,1.42-2.38,3.03-4.43,4.84-6.16,1.83-1.75,3.81-3.11,5.94-4.09,2.15-.98,4.3-1.47,6.47-1.47,1.75,0,3.22.3,4.41.91,1.21.58,2.18,1.38,2.91,2.38.73,1,1.25,2.16,1.56,3.47s.47,2.69.47,4.12c0,1.56-.16,3.12-.47,4.69-.29,1.56-.68,3.05-1.16,4.47-.29.9-.62,1.76-1,2.59s-.77,1.65-1.19,2.44c.29.69.72,1.25,1.28,1.69.56.42,1.34.62,2.34.62.58,0,1.21-.09,1.88-.28.67-.19,1.33-.49,2-.91.69-.44,1.35-1,2-1.69.67-.69,1.28-1.53,1.84-2.53l1.62-2.88.84.59-1.62,2.88c-.79,1.4-1.6,2.5-2.44,3.31-.81.79-1.6,1.4-2.38,1.81-.77.42-1.5.69-2.19.81-.67.1-1.24.16-1.72.16-.98,0-1.85-.12-2.62-.38-.77-.27-1.46-.62-2.06-1.06-1.04,1.67-2.2,3.18-3.47,4.53-1.25,1.35-2.57,2.51-3.97,3.47-1.4.96-2.84,1.7-4.34,2.22-1.48.52-2.96.78-4.44.78s-2.81-.26-4-.78c-1.17-.54-2.16-1.31-2.97-2.31s-1.44-2.22-1.88-3.66c-.44-1.46-.66-3.09-.66-4.91,0-1.15.08-2.31.25-3.5.17-1.21.41-2.41.72-3.59ZM179.94,52.53c1.21,0,2.43-.27,3.66-.81,1.25-.56,2.47-1.35,3.66-2.38,1.21-1.02,2.37-2.25,3.47-3.69,1.12-1.46,2.16-3.07,3.09-4.84-.25-.48-.44-.97-.56-1.47-.1-.52-.16-1.05-.16-1.59,0-.6.08-1.2.25-1.78.17-.6.42-1.16.75-1.66.35-.52.79-.99,1.31-1.41.54-.42,1.17-.75,1.88-1,.31-1.17.57-2.38.78-3.62.21-1.27.31-2.52.31-3.75,0-1-.09-1.95-.28-2.84-.19-.92-.51-1.71-.97-2.38-.44-.67-1.04-1.2-1.81-1.59-.75-.4-1.69-.59-2.81-.59-1.62,0-3.24.44-4.84,1.31-1.58.85-3.09,2.07-4.53,3.66-1.42,1.56-2.71,3.44-3.88,5.62-1.17,2.19-2.13,4.6-2.91,7.25-.52,1.77-.93,3.55-1.22,5.34-.27,1.77-.41,3.39-.41,4.84,0,4.92,1.74,7.38,5.22,7.38ZM222.59,0h4.66l-13.97,38.34c-.29.81-.58,1.65-.88,2.5-.29.83-.55,1.67-.78,2.5-.21.81-.38,1.6-.53,2.38-.12.75-.19,1.45-.19,2.09,0,1.44.38,2.58,1.12,3.44.77.85,1.96,1.28,3.56,1.28,1.4,0,2.74-.3,4.03-.91,1.31-.6,2.6-1.51,3.88-2.72,1.29-1.23,2.58-2.76,3.88-4.59,1.29-1.85,2.63-4.01,4.03-6.47l1.62-2.88.84.59-1.62,2.88c-1.52,2.69-2.98,5.02-4.38,7-1.38,1.96-2.76,3.58-4.16,4.88-1.38,1.27-2.78,2.22-4.22,2.84s-2.97.94-4.59.94c-1.27,0-2.4-.2-3.38-.59-.96-.38-1.76-.92-2.41-1.62-.67-.71-1.17-1.56-1.5-2.56s-.5-2.11-.5-3.34c0-1.08.12-2.26.38-3.53.25-1.29.63-2.66,1.16-4.09L222.59,0ZM239.75,16.47h4.62l-7.97,21.88c-.29.81-.58,1.65-.88,2.5-.29.83-.55,1.67-.78,2.5-.21.81-.38,1.6-.53,2.38-.12.75-.19,1.45-.19,2.09,0,1.44.38,2.58,1.12,3.44.77.85,1.96,1.28,3.56,1.28,1.4,0,2.74-.3,4.03-.91,1.31-.6,2.6-1.51,3.88-2.72,1.29-1.23,2.58-2.76,3.88-4.59,1.29-1.85,2.63-4.01,4.03-6.47l1.62-2.88.84.59-1.62,2.88c-1.52,2.69-2.98,5.02-4.38,7-1.38,1.96-2.76,3.58-4.16,4.88-1.38,1.27-2.78,2.22-4.22,2.84s-2.97.94-4.59.94c-1.27,0-2.4-.2-3.38-.59-.96-.38-1.76-.92-2.41-1.62-.67-.71-1.17-1.56-1.5-2.56s-.5-2.11-.5-3.34c0-1.08.13-2.27.41-3.56.25-1.29.62-2.65,1.12-4.06l7.97-21.88ZM242.25,8.28c0-.73.25-1.35.75-1.88.52-.52,1.15-.78,1.88-.78s1.34.26,1.84.78c.52.5.78,1.11.78,1.84,0,.35-.07.7-.22,1.03-.12.31-.31.58-.56.81-.23.23-.51.42-.84.56-.31.12-.66.19-1.03.19-.73,0-1.34-.24-1.84-.72-.5-.5-.75-1.11-.75-1.84ZM255.94,35.34c.73-2.79,1.79-5.38,3.19-7.75,1.42-2.38,3.03-4.43,4.84-6.16,1.83-1.75,3.81-3.11,5.94-4.09,2.15-.98,4.3-1.47,6.47-1.47,1.75,0,3.22.3,4.41.91,1.21.58,2.18,1.38,2.91,2.38.73,1,1.25,2.16,1.56,3.47s.47,2.69.47,4.12c0,1.56-.16,3.12-.47,4.69-.29,1.56-.68,3.05-1.16,4.47-.9,2.62-2.05,5.05-3.47,7.28-1.42,2.21-3,4.12-4.75,5.75-1.73,1.62-3.57,2.9-5.53,3.81-1.96.9-3.92,1.34-5.88,1.34-1.48,0-2.81-.26-4-.78-1.17-.54-2.16-1.31-2.97-2.31s-1.44-2.22-1.88-3.66c-.44-1.46-.66-3.09-.66-4.91,0-1.15.08-2.31.25-3.5.17-1.21.41-2.41.72-3.59ZM264.94,52.53c1.5,0,3.02-.43,4.56-1.28,1.56-.85,3.06-2.04,4.5-3.56,1.46-1.54,2.81-3.38,4.06-5.5s2.32-4.46,3.22-7c.25-.69.49-1.46.72-2.31.25-.85.48-1.74.69-2.66.21-.94.37-1.89.5-2.84.12-.98.19-1.93.19-2.84,0-1-.09-1.95-.28-2.84-.19-.92-.51-1.71-.97-2.38-.44-.67-1.04-1.2-1.81-1.59-.75-.4-1.69-.59-2.81-.59-1.62,0-3.24.44-4.84,1.31-1.58.85-3.09,2.07-4.53,3.66-1.42,1.56-2.71,3.44-3.88,5.62-1.17,2.19-2.14,4.6-2.91,7.25-.52,1.77-.93,3.55-1.22,5.34-.27,1.77-.41,3.39-.41,4.84,0,4.92,1.74,7.38,5.22,7.38Z"/>
</svg>