<?xml version="1.0" encoding="UTF-8"?>
<svg id="Layer_2" data-name="Layer 2" xmlns="http://www.w3.org/2000/svg" viewBox="0 0 426.6 393.1">
  <defs>
    <style>
      .cls-1 {
        fill: #ffe6bf;
      }
    </style>
  </defs>
  <path class="cls-1" d="M7.8,164.1c4-15.8,9.3-30.7,15.8-44.9,6.6-14.2,14.2-27.3,22.7-39.4,8.5-12.2,17.8-23.2,27.9-33s20.8-18.1,32-25c11.2-7,22.8-12.4,34.8-16,12-3.9,24.1-5.8,36.4-5.8,24.6,0,43.4,7.6,56.4,22.9,13,15.2,19.5,37.3,19.5,66.2s-1.2,25.4-3.7,39.1c-2.3,13.7-5.8,27.4-10.4,41.2-4.9,14.7-10.9,28.7-18,42-6.9,13.3-14.6,25.6-23.1,36.9-8.5,11.2-17.5,21.3-27.1,30.5-9.6,9.1-19.7,16.9-30.1,23.2s-21,11.3-31.8,14.6c-10.8,3.5-21.6,5.3-32.2,5.3s-22.9-2.2-32.4-6.6-17.6-10.8-24.2-19.1c-6.6-8.5-11.7-18.8-15.2-30.9-3.4-12.3-5.1-26.1-5.1-41.5s.6-19.3,2-29.3c1.3-10.2,3.3-20.3,5.9-30.5h0l-.1.1ZM79.9,312.3c12.9,0,26-3.7,39.5-11.1,13.5-7.4,26.6-17.8,39.1-31,12.6-13.3,24.4-29,35.2-47.3,10.9-18.4,20.3-38.5,28.1-60.3,5.6-15.8,9.9-31.2,12.9-46.3,3.1-15.2,4.7-29,4.7-41.2s-1.2-20-3.7-28.3c-2.3-8.5-5.9-15.6-10.6-21.3-4.6-5.9-10.2-10.3-16.8-13.3-6.6-3.1-14.1-4.7-22.5-4.7s-18.1,1.8-27.3,5.3c-9.2,3.5-18.4,8.5-27.5,15-9,6.4-17.8,14.2-26.4,23.4-8.5,9.1-16.5,19.4-24,30.9-7.6,11.3-14.5,23.6-20.9,36.9-6.4,13.3-11.9,27.2-16.6,41.8-4.4,14.2-7.8,28.2-10.2,42-2.3,13.7-3.5,26.5-3.5,38.5,0,23.2,4.3,40.8,12.9,52.9s21.2,18.2,37.7,18.2h0l-.1-.1Z"/>
  <path class="cls-1" d="M420.7,106.1c-3.9-7.6-9.6-13.9-17-19.1s-16.5-9.2-27.3-11.9c-10.7-2.7-22.8-4.1-36.3-4.1-20.7,0-41.3,3.2-61.9,9.6-13.6,4.3-22.1,7.3-34.9,14,.4,3,0,6.8-1.4,10.4,13.6-7.5,25.5-12.4,39.8-17,19.7-6.4,39.3-9.6,58.8-9.6s7.4.1,10.9.4h.1c2.5.2,3,3.6.7,4.5-3.4,1.4-6.7,3-10,4.7-6.1,3.1-12.2,7.2-18.4,12.3-6,4.9-12,11.1-18,18.4-5.9,7.3-11.6,16.1-17.4,26.6-3.8,6.9-7.5,14.4-11.1,22.7-3.6,8.2-7.4,17.1-11.3,26.8-3.9,9.5-8,19.7-12.3,30.7-4.3,10.9-9,22.6-14.1,35-6.6,16.1-12.8,30.4-18.4,42.8s-10.9,23.1-16,32.2-10.1,16.7-15,22.9-10,11.1-15.2,14.8c-5.1,3.8-10.5,6.5-16.2,8-5.6,1.6-11.8,2.3-18.6,2.3s-14.3-1-19.7-2.9c-5.3-2-9.8-5-13.3-9.2-3.4-4.3-5.9-9.8-7.6-16.4-1.6-6.6-2.3-14.6-2.3-24s.7-11.1,1.2-16.9c-.3,0-.8.2-1.1.2-.5,0-.8.2-1.4.2,0,0-1.9.4-2,.4-.8,0-1.5.2-2.3.2-1.3.2-2.9.4-4.1.2l-1.3,15.1v.2c0,41.6,17.76,62.4,53.96,62.4,23.24,0,27.71-1.88,32.6-3.91,2.47-1.02,4.9-2.36,8.86-4.84,12.26-7.63,24.68-17.26,36.38-30.56,11.7-13.4,23-30.3,33.8-50.6,10.8-20.4,21.3-44.5,31.5-72.3,5.7-15.5,10.7-28.9,14.8-40.2,4.2-11.3,7.8-21,10.7-29.1,3.1-8.2,5.7-15,7.8-20.3,2.2-5.5,4-10,5.5-13.5,1.6-3.5,2.9-6.3,4.1-8.4,1.2-2.2,2.3-4.2,3.5-5.9,2.2-3.1,4.8-6.2,7.8-9.4,3-3.2,6.2-6.3,9.6-9.2,3.5-2.9,7.1-5.4,10.7-7.6,3.4-2.2,6.7-3.9,10-5.3.5-.2,1.1-.2,1.6,0,10.7,3,18.5,8,23.6,15,5.2,7,7.8,16.4,7.8,28.1s-2,20.5-5.9,30.3c-3.8,9.8-9,18.8-15.8,26.9-6.6,8.1-14.5,15-23.6,20.9-8.8,5.6-18.2,9.6-28.5,11.9-.5.1-1.1,0-1.5-.2-1.5-.8-3-1.1-4.5-1.1s-3.1.3-4.1,1c-1,.5-1.6,1.1-1.6,1.8s.5,1.4,1.4,1.9c1,.4,2.3.6,3.9.6,1.73,0,1.82,0,2.43-.13l.87.03c13.5,3.7,23.8,10.6,30.7,20.8,7.2,10.3,10.7,24,10.7,41.2s-2.2,27.1-6.6,39.5-10.4,23.2-18,32.6c-7.4,9.4-16.1,16.8-26.2,22.3s-20.7,8.2-32,8.2-17.8-1.9-25.6-5.7c-7-3.5-12.8-8.2-17.5-14.2-.9-1.1-2.5-1.2-3.5-.2l-2.9,3c-.8.9-.9,2.2-.1,3.1,3.2,3.9,6.4,7.2,9.6,10.1,3.8,3.1,7.8,5.7,11.9,7.6,4.2,2.1,8.6,3.6,13.3,4.5s9.9,1.4,15.6,1.4c10,0,19.7-1.3,29.1-3.9,9.4-2.5,18.2-6,26.4-10.7,8.3-4.7,16-10.2,22.9-16.6,6.9-6.5,12.8-13.6,17.6-21.3,5-7.8,8.8-16.1,11.5-25s4.1-18,4.1-27.3c0-18.5-5.5-33.7-16.4-45.5-8.6-9.6-20.9-16.9-36.8-22-2.4-.8-2.1-4.2.4-4.6,8.5-1.2,16.7-3.4,24.5-6.5,11.9-4.8,22.2-11.1,31-18.8,9-7.8,16-16.8,21.1-26.9,5.2-10.2,7.8-20.8,7.8-32s-2-18-5.9-25.6h0v-.3Z"/>
</svg>