<?xml version="1.0" encoding="UTF-8"?>
<svg id="Layer_1" data-name="Layer 1" xmlns="http://www.w3.org/2000/svg" viewBox="0 0 844.04 208.59">
  <defs>
    <style>
      .cls-1 {
        fill: #fdfbf0;
      }
    </style>
  </defs>
  <path class="cls-1" d="M3.91,82.03c2.02-7.88,4.65-15.36,7.91-22.46,3.32-7.1,7.1-13.67,11.33-19.73,4.23-6.12,8.89-11.62,13.96-16.5,5.08-4.88,10.42-9.05,16.02-12.5,5.6-3.52,11.39-6.18,17.38-8.01,5.99-1.89,12.04-2.83,18.16-2.83,12.31,0,21.71,3.81,28.22,11.43,6.51,7.62,9.77,18.65,9.77,33.11,0,6.18-.62,12.7-1.86,19.53-1.17,6.84-2.9,13.7-5.18,20.61-2.47,7.36-5.47,14.36-8.98,21-3.45,6.64-7.29,12.79-11.52,18.46-4.23,5.6-8.76,10.68-13.57,15.23-4.82,4.56-9.83,8.43-15.04,11.62-5.21,3.19-10.51,5.63-15.92,7.32-5.4,1.76-10.77,2.64-16.11,2.64-6.05,0-11.46-1.11-16.21-3.32-4.75-2.21-8.79-5.4-12.11-9.57-3.32-4.23-5.86-9.38-7.62-15.43-1.69-6.12-2.54-13.02-2.54-20.7,0-4.75.33-9.64.98-14.65.65-5.08,1.63-10.16,2.93-15.23ZM39.94,156.15c6.45,0,13.02-1.85,19.73-5.57,6.77-3.71,13.28-8.89,19.53-15.53,6.32-6.64,12.17-14.52,17.58-23.63,5.47-9.18,10.16-19.24,14.06-30.18,2.8-7.88,4.95-15.59,6.45-23.14,1.56-7.62,2.34-14.49,2.34-20.61,0-5.27-.62-9.99-1.86-14.16-1.17-4.23-2.93-7.78-5.27-10.64-2.28-2.93-5.08-5.14-8.4-6.64-3.32-1.56-7.06-2.34-11.23-2.34-4.49,0-9.05.88-13.67,2.64-4.62,1.76-9.21,4.26-13.77,7.52-4.49,3.19-8.89,7.1-13.18,11.72-4.23,4.56-8.24,9.7-12.01,15.43-3.78,5.66-7.26,11.82-10.45,18.46-3.19,6.64-5.96,13.61-8.3,20.9-2.21,7.1-3.91,14.1-5.08,21-1.17,6.84-1.76,13.25-1.76,19.24,0,11.59,2.15,20.41,6.45,26.47,4.3,6.05,10.58,9.08,18.85,9.08ZM172.75,41.41h14.45l-15.33,41.89c4.36-7.42,8.46-13.87,12.3-19.34,3.91-5.47,7.75-9.99,11.52-13.57,3.84-3.65,7.75-6.35,11.72-8.11,4.04-1.82,8.33-2.73,12.89-2.73,3.97,0,7.46.65,10.45,1.95,3.06,1.3,5.6,3.12,7.62,5.47,2.08,2.34,3.65,5.18,4.69,8.5,1.04,3.32,1.56,6.97,1.56,10.94,0,2.47-.23,5.18-.68,8.11-.46,2.86-1.3,6.38-2.54,10.55,4.36-7.55,8.5-14.16,12.4-19.82,3.91-5.66,7.78-10.38,11.62-14.16,3.91-3.84,7.88-6.71,11.91-8.59,4.1-1.95,8.46-2.93,13.09-2.93,4.04,0,7.58.68,10.64,2.05,3.12,1.37,5.7,3.19,7.71,5.47,2.08,2.28,3.65,4.98,4.69,8.11,1.04,3.06,1.56,6.28,1.56,9.67,0,3.65-.55,7.65-1.66,12.01-1.04,4.36-2.38,8.85-4,13.48s-3.39,9.31-5.27,14.06c-1.89,4.69-3.65,9.21-5.27,13.57-1.63,4.36-2.99,8.46-4.1,12.3-1.04,3.78-1.56,7.1-1.56,9.96,0,3.97,1.2,7.29,3.61,9.96,2.47,2.6,6.32,3.91,11.52,3.91,8.4,0,16.5-3.81,24.32-11.43,7.88-7.62,16.08-19.11,24.61-34.47l4.98-8.98,2.64,1.86-5.08,8.99c-4.62,8.2-9.08,15.4-13.38,21.58-4.3,6.12-8.59,11.2-12.89,15.23s-8.69,7.06-13.18,9.08c-4.49,2.02-9.24,3.03-14.26,3.03-4.1,0-7.68-.62-10.74-1.85-3.06-1.24-5.63-2.93-7.71-5.08-2.08-2.15-3.65-4.62-4.69-7.42-1.04-2.86-1.56-5.89-1.56-9.08,0-3.39.52-7.19,1.56-11.43,1.11-4.23,2.47-8.63,4.1-13.18,1.63-4.56,3.39-9.18,5.27-13.87,1.89-4.75,3.65-9.34,5.27-13.77,1.63-4.49,2.96-8.72,4-12.7,1.11-4.04,1.66-7.62,1.66-10.74,0-2.15-.29-4.17-.88-6.05s-1.5-3.52-2.73-4.88c-1.24-1.43-2.8-2.54-4.69-3.32-1.89-.78-4.13-1.17-6.74-1.17-4.1,0-8.04,1.04-11.82,3.12-3.78,2.02-7.55,5.05-11.33,9.08-3.78,4.04-7.65,9.02-11.62,14.94-3.91,5.92-8.04,12.76-12.4,20.51l-4.88,8.69-20.51,56.35h-14.45l21-57.91c1.69-4.75,3.19-9.02,4.49-12.79,1.37-3.84,2.51-7.29,3.42-10.35.91-3.12,1.6-5.92,2.05-8.4.46-2.54.68-4.88.68-7.03,0-4.88-1.24-8.79-3.71-11.72-2.41-2.99-6.18-4.49-11.33-4.49-4.1,0-8.04,1.01-11.82,3.03-3.71,2.02-7.45,5.01-11.23,8.98-3.78,3.97-7.65,8.95-11.62,14.94-3.91,5.92-8.07,12.83-12.5,20.7l-5.08,8.98-20.51,56.06h-14.45l42.19-115.72ZM478.12,51.17c.59-1.43,1.27-3.45,2.05-6.05.85-2.6,1.63-5.44,2.34-8.5.78-3.12,1.43-6.35,1.95-9.67.59-3.39.88-6.54.88-9.47,0-1.95-.16-3.78-.49-5.47-.26-1.69-.75-3.12-1.46-4.3-.72-1.24-1.66-2.21-2.83-2.93-1.11-.72-2.51-1.07-4.2-1.07-2.86,0-5.89.94-9.08,2.83-3.12,1.82-6.35,4.65-9.67,8.5-3.32,3.84-6.71,8.72-10.16,14.65-3.39,5.86-6.74,12.79-10.06,20.8l-2.64-1.76c3.58-8.85,7.19-16.37,10.84-22.56,3.71-6.18,7.42-11.2,11.13-15.04,3.78-3.91,7.52-6.74,11.23-8.5,3.78-1.76,7.52-2.64,11.23-2.64s6.54.68,8.89,2.05c2.41,1.37,4.3,3.26,5.66,5.66,1.37,2.34,2.31,5.11,2.83,8.3.59,3.12.88,6.48.88,10.06,0,1.89-.13,4-.39,6.35-.26,2.28-.65,4.65-1.17,7.13,3.78-6.45,7.36-12.14,10.74-17.09,3.45-4.95,6.87-9.08,10.25-12.4,3.39-3.32,6.8-5.83,10.25-7.52,3.52-1.69,7.26-2.54,11.23-2.54,3.58,0,6.97.59,10.16,1.76,3.26,1.17,6.09,2.9,8.5,5.18,2.41,2.21,4.3,5.01,5.66,8.4,1.43,3.39,2.15,7.26,2.15,11.62,0,2.15-.16,4.23-.49,6.25-.32,2.02-.81,4.07-1.46,6.15,3.78-6.45,7.36-12.11,10.74-16.99,3.45-4.95,6.84-9.05,10.16-12.3,3.39-3.32,6.8-5.83,10.25-7.52,3.52-1.69,7.26-2.54,11.23-2.54,3.52,0,6.84.59,9.96,1.76,3.19,1.17,5.96,2.9,8.3,5.18,2.41,2.21,4.3,5.01,5.66,8.4,1.43,3.39,2.15,7.26,2.15,11.62,0,5.01-.91,10.51-2.74,16.5-1.76,5.92-3.97,12.17-6.64,18.75-2.67,6.51-5.57,13.18-8.69,20.02-3.06,6.84-5.92,13.64-8.59,20.41-2.67,6.77-4.92,13.41-6.74,19.92-1.76,6.44-2.64,12.53-2.64,18.26,0,4.62,1.04,8.33,3.13,11.13,2.08,2.8,5.44,4.2,10.06,4.2,4.3,0,8.43-1.01,12.4-3.03,3.97-2.02,7.91-5.01,11.82-8.98,3.91-4.04,7.88-9.05,11.91-15.04,4.1-5.99,8.4-12.96,12.89-20.9l5.08-8.98,2.64,1.86-5.08,8.99c-4.88,8.66-9.51,16.18-13.87,22.56-4.36,6.38-8.69,11.69-12.99,15.92-4.23,4.17-8.56,7.26-12.99,9.28-4.43,2.08-9.18,3.13-14.26,3.13-4.56,0-8.43-.55-11.62-1.66-3.19-1.11-5.8-2.67-7.81-4.69-2.02-2.08-3.48-4.56-4.39-7.42-.91-2.93-1.37-6.18-1.37-9.77,0-4.49.52-9.24,1.56-14.26,1.04-5.01,2.41-10.19,4.1-15.53,1.76-5.34,3.71-10.74,5.86-16.21,2.21-5.53,4.46-11,6.74-16.41,2.34-5.4,4.59-10.68,6.74-15.82,2.21-5.14,4.17-10.03,5.86-14.65,1.76-4.62,3.16-8.89,4.2-12.79,1.04-3.97,1.56-7.49,1.56-10.55,0-5.53-1.33-9.64-4-12.3-2.6-2.73-6.05-4.1-10.35-4.1-3.65,0-7.19,1.04-10.65,3.12-3.39,2.08-6.83,5.18-10.35,9.28-3.52,4.04-7.19,9.05-11.04,15.04-3.78,5.92-7.84,12.76-12.21,20.51l-1.86,3.32-36.62,101.07h-14.45l29.39-81.25c2.02-5.53,3.97-10.94,5.86-16.21,1.95-5.27,3.68-10.25,5.18-14.94,1.5-4.69,2.7-9.02,3.61-12.99.98-3.97,1.47-7.49,1.47-10.55,0-5.53-1.43-9.83-4.3-12.89-2.8-3.06-6.45-4.59-10.94-4.59-3.64,0-7.19,1.11-10.64,3.32-3.39,2.21-6.84,5.4-10.35,9.57-3.52,4.17-7.16,9.28-10.94,15.33-3.71,5.99-7.75,12.79-12.11,20.41l-38.18,104.79h-14.45l38.57-105.96ZM683.79,41.41h14.45l-24.9,68.36c-.91,2.54-1.82,5.14-2.74,7.81-.91,2.6-1.72,5.21-2.44,7.81-.65,2.54-1.2,5.01-1.66,7.42-.39,2.34-.59,4.53-.59,6.54,0,4.49,1.17,8.07,3.52,10.74,2.41,2.67,6.12,4,11.13,4,4.36,0,8.56-.94,12.6-2.83,4.1-1.89,8.14-4.72,12.11-8.5,4.04-3.84,8.07-8.63,12.11-14.35,4.04-5.79,8.23-12.53,12.6-20.21l5.08-8.98,2.64,1.86-5.08,8.99c-4.75,8.4-9.31,15.69-13.67,21.88-4.3,6.12-8.63,11.2-12.99,15.23-4.3,3.97-8.69,6.93-13.18,8.89-4.49,1.95-9.28,2.93-14.35,2.93-3.97,0-7.49-.62-10.55-1.85-2.99-1.17-5.5-2.86-7.52-5.08-2.08-2.21-3.65-4.88-4.69-8.01s-1.56-6.61-1.56-10.45c0-3.39.42-7.1,1.27-11.13.78-4.04,1.95-8.27,3.52-12.69l24.9-68.36ZM691.6,15.82c0-2.28.78-4.23,2.34-5.86,1.63-1.63,3.58-2.44,5.86-2.44s4.2.81,5.76,2.44c1.63,1.56,2.44,3.48,2.44,5.76,0,1.11-.23,2.18-.68,3.22-.39.98-.98,1.82-1.76,2.54-.72.72-1.59,1.3-2.64,1.76-.98.39-2.05.59-3.22.59-2.28,0-4.2-.75-5.76-2.25-1.56-1.56-2.34-3.48-2.34-5.76ZM743.26,208.59c-6.32,0-11.56-.85-15.72-2.54-4.23-1.69-7.59-4.36-10.06-8.01-1.3-1.76-2.28-3.65-2.93-5.66-.72-1.95-1.07-3.91-1.07-5.86,0-2.93.78-5.24,2.34-6.93,1.5-1.69,3.58-2.54,6.25-2.54,2.28,0,4.07.62,5.37,1.86s1.95,2.96,1.95,5.18c0,2.08-.55,3.78-1.66,5.08-1.11,1.3-2.51,1.95-4.2,1.95-.72,0-1.27-.1-1.66-.29-.46-.2-.94-.29-1.47-.29-.32,0-.55.07-.68.2-.13.19-.2.55-.2,1.07,0,1.82.59,3.48,1.76,4.98,1.17,1.56,2.8,2.9,4.88,4,2.08,1.17,4.56,2.05,7.42,2.64,2.86.65,5.96.98,9.28.98,4.75,0,9.12-.68,13.09-2.05,3.97-1.37,7.59-3.52,10.84-6.45,3.32-2.86,6.32-6.54,8.98-11.03,2.73-4.43,5.24-9.76,7.52-16.01l18.55-51.37c-8.33,13.87-16.6,24.25-24.8,31.15s-16.54,10.35-25,10.35c-4.04,0-7.49-.72-10.35-2.15-2.8-1.5-5.11-3.55-6.93-6.15-1.82-2.67-3.16-5.76-4-9.28-.85-3.58-1.27-7.49-1.27-11.72,0-4.56.46-9.34,1.37-14.36.91-5.08,2.21-10.16,3.91-15.23,2.34-7.03,5.14-13.41,8.4-19.14,3.26-5.79,6.77-10.94,10.55-15.43,3.84-4.49,7.85-8.37,12.01-11.62,4.23-3.26,8.43-5.92,12.6-8.01,4.23-2.15,8.37-3.74,12.4-4.79,4.1-1.04,7.94-1.56,11.52-1.56s6.8.55,9.28,1.66c2.54,1.04,4.56,2.57,6.05,4.59,1.5,2.02,2.57,4.46,3.22,7.32s.98,6.05.98,9.57l7.81-21.29h14.45l-46.09,126.66c-4.82,13.22-11.88,23.28-21.19,30.18s-20.47,10.35-33.5,10.35ZM755.57,154.1c3.52,0,7.1-.91,10.74-2.74,3.64-1.89,7.26-4.43,10.84-7.62,3.65-3.26,7.16-7.03,10.55-11.33,3.39-4.36,6.58-8.98,9.57-13.87,3.06-4.95,5.86-10.03,8.4-15.24,2.54-5.21,4.72-10.32,6.54-15.33,1.89-5.08,3.32-9.9,4.3-14.45,1.04-4.62,1.56-8.76,1.56-12.4,0-3.32-.42-6.09-1.27-8.3-.78-2.28-1.86-4.1-3.22-5.47-1.3-1.43-2.83-2.44-4.59-3.03-1.69-.59-3.45-.88-5.27-.88-3.65,0-7.72,1.14-12.21,3.42-4.43,2.21-8.95,5.63-13.57,10.25-4.62,4.56-9.18,10.35-13.67,17.38-4.43,6.97-8.5,15.17-12.21,24.61-3.06,7.88-5.37,15.17-6.93,21.87-1.5,6.71-2.25,12.3-2.25,16.8,0,5.08,1.01,9.08,3.03,12.01,2.08,2.86,5.31,4.3,9.67,4.3Z"/>
</svg>