<?xml version="1.0" encoding="UTF-8"?>
<svg id="Layer_1" data-name="Layer 1" xmlns="http://www.w3.org/2000/svg" viewBox="0 0 564.67 131.19">
  <defs>
    <style>
      .cls-1 {
        fill: #fdfbf0;
      }
    </style>
  </defs>
  <path class="cls-1" d="M16.11,102.6c-10.74,0-16.11-6.33-16.11-18.98,0-5.7.98-11.64,2.93-17.81,1.95-6.21,4.8-12.46,8.55-18.75,3.83-6.37,8.16-12.09,13.01-17.17,4.84-5.08,10.02-9.38,15.53-12.89,5.51-3.55,11.27-6.27,17.29-8.14,6.02-1.88,12.11-2.81,18.28-2.81,4.26,0,8.03.43,11.31,1.29,3.28.82,6.04,2.05,8.26,3.69,2.27,1.6,3.98,3.59,5.16,5.98,1.17,2.34,1.76,5.04,1.76,8.09,0,4.18-.98,8.11-2.93,11.78-1.95,3.63-4.63,6.82-8.03,9.55-3.4,2.7-7.4,4.84-12.01,6.45-4.57,1.6-9.47,2.42-14.71,2.46v-.64c4.61-.78,8.77-2.07,12.48-3.87,3.71-1.84,6.86-4.08,9.43-6.74,2.62-2.7,4.61-5.76,5.98-9.2,1.41-3.44,2.11-7.15,2.11-11.13s-.78-7.21-2.34-9.55c-1.52-2.38-3.98-4.04-7.38-4.98-2.11.9-4.2,2.19-6.27,3.87-2.03,1.68-3.73,3.57-5.1,5.68-.43.62-.84,1.29-1.23,1.99-.39.66-.84,1.52-1.35,2.58-.47,1.05-1.04,2.38-1.7,3.98-.62,1.56-1.39,3.55-2.29,5.98-.9,2.38-1.97,5.27-3.22,8.67-1.25,3.36-2.71,7.36-4.39,12.01-3.01,8.28-6.13,15.49-9.38,21.62-3.24,6.09-6.64,11.15-10.2,15.18-3.55,3.98-7.29,6.95-11.19,8.91-3.87,1.95-7.95,2.93-12.25,2.93ZM60.76,28.24c1.33-2.27,2.83-4.39,4.51-6.39,1.68-2.03,3.44-3.89,5.27-5.57,1.88-1.68,3.81-3.14,5.8-4.39,2.03-1.29,4.06-2.34,6.09-3.16-.94-.16-1.93-.27-2.99-.35-1.02-.08-2.11-.12-3.28-.12-5.86,0-11.7.92-17.52,2.75-5.82,1.84-11.41,4.47-16.76,7.91-5.35,3.44-10.39,7.6-15.12,12.48-4.69,4.88-8.87,10.37-12.54,16.46-3.59,5.94-6.33,11.95-8.2,18.05-1.84,6.05-2.75,11.97-2.75,17.75s1,9.92,2.99,12.54c1.99,2.62,5.12,3.93,9.37,3.93,2.03,0,3.93-.25,5.68-.76,1.76-.51,3.44-1.35,5.04-2.52,1.64-1.17,3.22-2.7,4.75-4.57,1.52-1.88,3.07-4.2,4.63-6.97,1.6-2.77,3.22-6.02,4.86-9.73,1.68-3.71,3.48-7.97,5.39-12.77,1.68-4.3,3.14-8.03,4.39-11.19,1.29-3.2,2.4-5.96,3.34-8.26.94-2.3,1.74-4.24,2.4-5.8.66-1.56,1.27-2.89,1.82-3.98.55-1.13,1.04-2.11,1.46-2.93.43-.82.88-1.62,1.35-2.4ZM148.07,35.04c0-.62-.41-1.25-1.23-1.88-.78-.66-1.93-1-3.46-1s-3.26.49-5.1,1.46c-1.84.94-3.93,2.62-6.27,5.04-2.34,2.42-4.98,5.72-7.91,9.9-2.89,4.18-6.17,9.51-9.84,16l-2.93,5.16-11.07,30.59h-8.73l25.31-69.43h8.67l-10.25,28.12c3.2-5.51,6.13-10.12,8.79-13.83,2.66-3.75,5.12-6.76,7.38-9.02,2.26-2.3,4.39-3.95,6.39-4.92,1.99-.98,3.95-1.46,5.86-1.46,2.58,0,4.59.76,6.04,2.29,1.48,1.52,2.23,3.52,2.23,5.98,0,1.02-.14,1.99-.41,2.93-.23.9-.6,1.68-1.11,2.34-.47.66-1.06,1.19-1.76,1.58-.7.39-1.48.59-2.34.59-.62,0-1.25-.1-1.88-.29-.59-.2-1.11-.49-1.58-.88-.47-.43-.86-.94-1.17-1.52-.27-.59-.41-1.27-.41-2.05,0-.62.1-1.25.29-1.88.24-.66.55-1.23.94-1.7.39-.51.86-.92,1.41-1.23.55-.31,1.15-.47,1.82-.47.43,0,.84.04,1.23.12.08.08.18.16.29.23.16.04.27.06.35.06.31,0,.47-.27.47-.82ZM158.44,66.27c1.37-5.23,3.36-10.08,5.98-14.53,2.66-4.45,5.68-8.3,9.08-11.54,3.44-3.28,7.15-5.84,11.13-7.68,4.02-1.84,8.07-2.75,12.13-2.75,3.28,0,6.04.57,8.26,1.7,2.26,1.09,4.08,2.58,5.45,4.45,1.37,1.88,2.34,4.04,2.93,6.5.59,2.46.88,5.04.88,7.73,0,2.93-.29,5.86-.88,8.79-.55,2.93-1.27,5.72-2.17,8.38-.55,1.68-1.17,3.3-1.88,4.86-.7,1.56-1.44,3.09-2.23,4.57.55,1.29,1.35,2.34,2.4,3.16,1.05.78,2.52,1.17,4.39,1.17,1.09,0,2.26-.18,3.51-.53s2.5-.92,3.75-1.7c1.29-.82,2.54-1.88,3.75-3.16,1.25-1.29,2.4-2.87,3.46-4.75l3.05-5.39,1.58,1.11-3.05,5.39c-1.48,2.62-3.01,4.69-4.57,6.21-1.52,1.48-3.01,2.62-4.45,3.4-1.45.78-2.81,1.29-4.1,1.52-1.25.2-2.32.29-3.22.29-1.84,0-3.48-.23-4.92-.7-1.44-.51-2.73-1.17-3.87-1.99-1.95,3.12-4.12,5.96-6.5,8.5-2.34,2.54-4.82,4.71-7.44,6.5-2.62,1.8-5.33,3.18-8.14,4.16-2.77.98-5.55,1.47-8.32,1.47s-5.27-.49-7.5-1.47c-2.19-1.02-4.04-2.46-5.57-4.34-1.52-1.88-2.7-4.16-3.51-6.86-.82-2.73-1.23-5.8-1.23-9.2,0-2.15.16-4.34.47-6.56.31-2.27.76-4.51,1.35-6.74ZM175.31,98.5c2.27,0,4.55-.51,6.86-1.52,2.34-1.05,4.63-2.54,6.85-4.45,2.27-1.91,4.43-4.22,6.5-6.91,2.11-2.73,4.04-5.76,5.8-9.08-.47-.9-.82-1.82-1.06-2.75-.19-.98-.29-1.97-.29-2.99,0-1.13.16-2.25.47-3.34.31-1.13.78-2.17,1.41-3.11.67-.98,1.49-1.86,2.46-2.64,1.02-.78,2.19-1.41,3.52-1.88.59-2.19,1.07-4.45,1.46-6.8.39-2.38.59-4.73.59-7.03,0-1.88-.18-3.65-.53-5.33-.35-1.72-.96-3.2-1.82-4.45-.82-1.25-1.95-2.25-3.4-2.99-1.41-.74-3.16-1.11-5.27-1.11-3.05,0-6.07.82-9.08,2.46-2.97,1.6-5.8,3.89-8.5,6.86-2.66,2.93-5.08,6.45-7.27,10.55-2.19,4.1-4,8.63-5.45,13.59-.98,3.32-1.74,6.66-2.29,10.02-.51,3.32-.76,6.35-.76,9.08,0,9.22,3.26,13.83,9.79,13.83ZM200.68,131.19c-3.12,0-5.53-.9-7.21-2.69-1.68-1.76-2.52-4.34-2.52-7.73,0-1.99.49-3.56,1.46-4.69.94-1.09,2.25-1.64,3.93-1.64,1.37,0,2.44.37,3.22,1.11.78.74,1.17,1.76,1.17,3.05s-.31,2.26-.94,3.05c-.66.82-1.5,1.23-2.52,1.23-.43,0-.76-.06-1-.18-.27-.12-.59-.18-.94-.18-.2,0-.33.04-.41.12-.08.12-.12.37-.12.76,0,1.68.49,2.97,1.46,3.87.94.94,2.29,1.41,4.04,1.41,1.52,0,2.95-.39,4.28-1.17,1.33-.78,2.64-2.03,3.93-3.75,1.25-1.68,2.5-3.87,3.75-6.56,1.25-2.7,2.58-5.98,3.99-9.84l27.77-76.47h8.67l-27.6,76c-2.89,7.89-6.45,13.91-10.66,18.05-4.22,4.18-8.81,6.27-13.77,6.27ZM248.79,15.53c0-1.37.47-2.54,1.41-3.52.98-.98,2.15-1.46,3.52-1.46s2.52.49,3.46,1.46c.98.94,1.46,2.09,1.46,3.46,0,.66-.14,1.31-.41,1.93-.23.59-.59,1.09-1.05,1.52-.43.43-.96.78-1.58,1.05-.59.23-1.23.35-1.93.35-1.37,0-2.52-.45-3.46-1.35-.94-.94-1.41-2.09-1.41-3.46ZM286.76,101.43c-7.07,0-12.52-1.84-16.35-5.51-3.83-3.71-5.74-9.22-5.74-16.52,0-1.99.16-4.1.47-6.33.27-2.23.72-4.51,1.35-6.86,1.41-5.23,3.38-10.08,5.92-14.53,2.58-4.45,5.53-8.3,8.85-11.54s6.89-5.78,10.72-7.62c3.83-1.84,7.68-2.75,11.54-2.75s6.97.92,9.2,2.75c2.27,1.84,3.4,4.41,3.4,7.73,0,1.88-.37,3.71-1.11,5.51-.74,1.8-1.82,3.5-3.22,5.1-1.41,1.6-3.11,3.11-5.1,4.51-1.95,1.37-4.16,2.56-6.62,3.57-3.05,1.29-6.41,2.27-10.08,2.93-3.67.62-7.85.94-12.54.94-1.13,3.16-2.03,6.46-2.7,9.9-.62,3.4-.94,6.88-.94,10.43,0,5.43,1.13,9.36,3.4,11.78,2.3,2.38,5.92,3.57,10.84,3.57,4.1,0,8.01-.78,11.72-2.34,3.71-1.6,7.15-3.69,10.31-6.27,3.16-2.58,6.05-5.51,8.67-8.79,2.62-3.32,4.9-6.7,6.86-10.14l3.05-5.39,1.58,1.11-3.05,5.39c-2.42,4.26-5.08,8.18-7.97,11.78-2.85,3.59-5.98,6.7-9.38,9.32-3.36,2.58-6.97,4.61-10.84,6.09-3.83,1.45-7.91,2.17-12.25,2.17ZM305.16,32.11c-2.46,0-4.98.72-7.56,2.17-2.54,1.45-5,3.46-7.38,6.04-2.38,2.54-4.61,5.55-6.68,9.02-2.07,3.48-3.87,7.27-5.39,11.37,4.3-.08,7.97-.45,11.02-1.11,3.05-.7,5.7-1.58,7.97-2.64,1.8-.82,3.54-1.88,5.21-3.16,1.72-1.33,3.22-2.83,4.51-4.51,1.33-1.68,2.38-3.5,3.16-5.45.82-1.95,1.23-3.98,1.23-6.09,0-1.05-.16-1.93-.47-2.64-.31-.7-.74-1.27-1.29-1.7-.55-.47-1.19-.8-1.93-1-.74-.2-1.54-.29-2.4-.29ZM340.78,56.07c3.05-5.2,5.84-9.55,8.38-13.07,2.54-3.52,4.98-6.33,7.32-8.44,2.38-2.11,4.75-3.61,7.09-4.51,2.38-.9,4.92-1.35,7.62-1.35,4.45,0,7.85,1.04,10.2,3.11,2.38,2.07,3.57,5.06,3.57,8.96,0,3.28-.82,6.27-2.46,8.96-1.6,2.7-3.93,5.04-6.97,7.03-.98.62-2.05,1.21-3.22,1.76-1.13.55-2.44,1.09-3.93,1.64-1.48.55-3.16,1.11-5.04,1.7-1.88.55-4.02,1.11-6.45,1.7v.23c4.8.31,8.48,1.39,11.02,3.22,2.58,1.84,3.87,4.16,3.87,6.97,0,1.25-.21,2.56-.64,3.93-.43,1.33-.92,2.7-1.46,4.1-.51,1.41-.98,2.83-1.41,4.28-.43,1.41-.64,2.79-.64,4.16,0,2.38.76,4.32,2.29,5.8,1.52,1.48,3.77,2.23,6.74,2.23,2.38,0,4.75-.55,7.09-1.64,2.34-1.09,4.71-2.75,7.09-4.98,2.38-2.27,4.8-5.12,7.27-8.55,2.5-3.48,5.1-7.6,7.79-12.36l3.05-5.39,1.58,1.11-3.05,5.39c-3.2,5.66-6.17,10.39-8.91,14.18-2.73,3.75-5.43,6.76-8.09,9.02-2.62,2.23-5.25,3.81-7.91,4.75-2.66.94-5.51,1.41-8.55,1.41-1.8,0-3.52-.18-5.16-.53-1.64-.31-3.09-.86-4.34-1.64-1.25-.78-2.25-1.84-2.99-3.16-.74-1.33-1.11-2.99-1.11-4.98,0-1.56.2-3.14.59-4.75.43-1.64.88-3.22,1.35-4.75.51-1.56.96-3.07,1.35-4.51.43-1.45.64-2.79.64-4.04,0-2.42-.98-4.45-2.93-6.09-1.95-1.64-4.98-2.52-9.08-2.64v-.29c4.1-1.13,7.77-2.54,11.02-4.22,3.28-1.68,6.04-3.52,8.26-5.51,4.34-3.95,6.5-8.57,6.5-13.89,0-6.33-2.93-9.49-8.79-9.49-2.3,0-4.57.55-6.8,1.64-2.19,1.05-4.53,2.95-7.03,5.68-2.5,2.7-5.25,6.35-8.26,10.96-2.97,4.61-6.39,10.43-10.25,17.46l-12.3,33.63h-8.67L352.5,0h8.73l-20.45,56.07ZM404.36,30.88h17.11l5.57-15.35h8.67l-5.57,15.35h17.58v2.34h-18.46l-14.06,38.67c-.55,1.52-1.09,3.09-1.64,4.69-.51,1.6-.98,3.18-1.41,4.75-.39,1.52-.72,3.01-1,4.45-.23,1.41-.35,2.7-.35,3.87,0,2.7.72,4.84,2.17,6.45,1.48,1.6,3.71,2.4,6.68,2.4s5.7-.55,8.44-1.64c2.73-1.09,5.43-2.77,8.09-5.04s5.29-5.12,7.91-8.55c2.62-3.48,5.25-7.58,7.91-12.3l3.05-5.39,1.58,1.11-3.05,5.39c-3.09,5.47-6.07,10.08-8.96,13.83-2.89,3.71-5.76,6.72-8.61,9.02-2.81,2.3-5.68,3.96-8.61,4.98-2.89,1.02-5.9,1.52-9.02,1.52-2.38,0-4.49-.37-6.33-1.11-1.84-.7-3.36-1.72-4.57-3.05-1.25-1.33-2.19-2.93-2.81-4.8-.66-1.88-1-3.96-1-6.27,0-2.03.23-4.26.7-6.68.47-2.42,1.19-4.96,2.17-7.62l14.06-38.67h-16.23v-2.34ZM475.08,101.43c-7.07,0-12.52-1.84-16.35-5.51-3.83-3.71-5.74-9.22-5.74-16.52,0-1.99.16-4.1.47-6.33.27-2.23.72-4.51,1.35-6.86,1.41-5.23,3.38-10.08,5.92-14.53,2.58-4.45,5.53-8.3,8.85-11.54,3.32-3.24,6.89-5.78,10.72-7.62,3.83-1.84,7.68-2.75,11.54-2.75s6.97.92,9.2,2.75c2.27,1.84,3.4,4.41,3.4,7.73,0,1.88-.37,3.71-1.11,5.51-.74,1.8-1.82,3.5-3.22,5.1-1.41,1.6-3.11,3.11-5.1,4.51-1.95,1.37-4.16,2.56-6.62,3.57-3.05,1.29-6.41,2.27-10.08,2.93-3.67.62-7.85.94-12.54.94-1.13,3.16-2.03,6.46-2.7,9.9-.62,3.4-.94,6.88-.94,10.43,0,5.43,1.13,9.36,3.4,11.78,2.3,2.38,5.92,3.57,10.84,3.57,4.1,0,8.01-.78,11.72-2.34,3.71-1.6,7.15-3.69,10.31-6.27,3.16-2.58,6.05-5.51,8.67-8.79,2.62-3.32,4.9-6.7,6.86-10.14l3.05-5.39,1.58,1.11-3.05,5.39c-2.42,4.26-5.08,8.18-7.97,11.78-2.85,3.59-5.98,6.7-9.38,9.32-3.36,2.58-6.97,4.61-10.84,6.09-3.83,1.45-7.91,2.17-12.25,2.17ZM493.48,32.11c-2.46,0-4.98.72-7.56,2.17-2.54,1.45-5,3.46-7.38,6.04-2.38,2.54-4.61,5.55-6.68,9.02-2.07,3.48-3.87,7.27-5.39,11.37,4.3-.08,7.97-.45,11.02-1.11,3.05-.7,5.7-1.58,7.97-2.64,1.8-.82,3.54-1.88,5.21-3.16,1.72-1.33,3.22-2.83,4.51-4.51,1.33-1.68,2.38-3.5,3.16-5.45.82-1.95,1.23-3.98,1.23-6.09,0-1.05-.16-1.93-.47-2.64-.31-.7-.74-1.27-1.29-1.7-.55-.47-1.19-.8-1.93-1-.74-.2-1.54-.29-2.4-.29ZM560.8,35.04c0-.62-.41-1.25-1.23-1.88-.78-.66-1.93-1-3.46-1s-3.26.49-5.1,1.46c-1.84.94-3.93,2.62-6.27,5.04-2.34,2.42-4.98,5.72-7.91,9.9-2.89,4.18-6.17,9.51-9.84,16l-2.93,5.16-11.07,30.59h-8.73l25.31-69.43h8.67l-10.25,28.12c3.2-5.51,6.13-10.12,8.79-13.83,2.66-3.75,5.12-6.76,7.38-9.02,2.27-2.3,4.4-3.95,6.39-4.92,1.99-.98,3.95-1.46,5.86-1.46,2.58,0,4.59.76,6.03,2.29,1.49,1.52,2.23,3.52,2.23,5.98,0,1.02-.14,1.99-.41,2.93-.23.9-.61,1.68-1.11,2.34-.47.66-1.05,1.19-1.76,1.58-.7.39-1.49.59-2.34.59-.62,0-1.25-.1-1.88-.29-.59-.2-1.11-.49-1.58-.88-.47-.43-.86-.94-1.17-1.52-.27-.59-.41-1.27-.41-2.05,0-.62.1-1.25.29-1.88.23-.66.55-1.23.94-1.7.39-.51.86-.92,1.41-1.23s1.15-.47,1.82-.47c.43,0,.84.04,1.23.12.08.08.17.16.29.23.16.04.27.06.35.06.31,0,.47-.27.47-.82Z"/>
</svg>