<?xml version="1.0" encoding="UTF-8"?>
<svg id="Layer_1" data-name="Layer 1" xmlns="http://www.w3.org/2000/svg" viewBox="0 0 941.11 218.65">
  <defs>
    <style>
      .cls-1 {
        fill: #fdfbf0;
      }
    </style>
  </defs>
  <path class="cls-1" d="M26.86,171c-17.9,0-26.86-10.55-26.86-31.64,0-9.5,1.63-19.4,4.88-29.69,3.26-10.35,8.01-20.77,14.26-31.25,6.38-10.61,13.61-20.15,21.68-28.61,8.07-8.46,16.7-15.62,25.88-21.48,9.18-5.92,18.78-10.45,28.81-13.57,10.03-3.12,20.18-4.69,30.47-4.69,7.1,0,13.38.72,18.85,2.15,5.47,1.37,10.06,3.42,13.77,6.15,3.78,2.67,6.64,5.99,8.59,9.96,1.95,3.91,2.93,8.4,2.93,13.48,0,6.97-1.63,13.51-4.88,19.63-3.25,6.05-7.71,11.36-13.38,15.92-5.66,4.49-12.34,8.07-20.02,10.74-7.62,2.67-15.79,4.04-24.51,4.1v-1.07c7.68-1.3,14.62-3.45,20.8-6.45,6.18-3.06,11.43-6.8,15.72-11.23,4.36-4.49,7.68-9.6,9.96-15.33,2.34-5.73,3.51-11.91,3.51-18.55s-1.3-12.01-3.91-15.92c-2.54-3.97-6.64-6.74-12.3-8.3-3.51,1.5-7,3.65-10.45,6.45-3.39,2.8-6.22,5.96-8.5,9.47-.72,1.04-1.4,2.15-2.05,3.32-.65,1.11-1.4,2.54-2.25,4.3-.78,1.76-1.72,3.97-2.83,6.64-1.04,2.6-2.31,5.92-3.81,9.96-1.5,3.97-3.29,8.79-5.37,14.45-2.08,5.6-4.52,12.27-7.32,20.02-5.01,13.8-10.22,25.81-15.62,36.04-5.4,10.16-11.07,18.59-16.99,25.29-5.92,6.64-12.14,11.59-18.65,14.84-6.45,3.25-13.25,4.88-20.41,4.88ZM101.27,47.07c2.21-3.78,4.72-7.32,7.52-10.64,2.8-3.39,5.73-6.48,8.79-9.28,3.12-2.8,6.35-5.24,9.67-7.32,3.39-2.15,6.77-3.91,10.16-5.27-1.56-.26-3.22-.46-4.98-.59-1.69-.13-3.52-.2-5.47-.2-9.76,0-19.5,1.53-29.2,4.59-9.7,3.06-19.01,7.45-27.93,13.18-8.92,5.73-17.32,12.66-25.2,20.8-7.81,8.14-14.78,17.29-20.9,27.44-5.99,9.9-10.55,19.92-13.67,30.08-3.06,10.09-4.59,19.95-4.59,29.59s1.66,16.54,4.98,20.9c3.32,4.36,8.53,6.54,15.62,6.54,3.39,0,6.54-.42,9.47-1.27,2.93-.85,5.73-2.25,8.4-4.2,2.73-1.95,5.37-4.49,7.91-7.62,2.54-3.12,5.11-7,7.71-11.62,2.67-4.62,5.37-10.03,8.11-16.21,2.8-6.18,5.79-13.28,8.98-21.29,2.8-7.16,5.24-13.38,7.32-18.65,2.15-5.34,4-9.93,5.57-13.77,1.56-3.84,2.9-7.06,4-9.67,1.11-2.6,2.12-4.82,3.03-6.64.91-1.89,1.73-3.52,2.44-4.88.72-1.37,1.46-2.7,2.25-4ZM246.78,58.4c0-1.04-.68-2.08-2.05-3.12-1.3-1.11-3.22-1.66-5.76-1.66s-5.44.81-8.5,2.44c-3.06,1.56-6.54,4.36-10.45,8.4-3.91,4.04-8.3,9.54-13.18,16.5-4.82,6.97-10.29,15.85-16.41,26.66l-4.88,8.59-18.46,50.98h-14.55l42.19-115.72h14.45l-17.09,46.87c5.34-9.18,10.22-16.86,14.65-23.05,4.43-6.25,8.53-11.26,12.3-15.04,3.78-3.84,7.32-6.58,10.65-8.2,3.32-1.63,6.57-2.44,9.76-2.44,4.3,0,7.65,1.27,10.06,3.81,2.47,2.54,3.71,5.86,3.71,9.96,0,1.69-.23,3.32-.68,4.88-.39,1.5-1.01,2.8-1.85,3.91-.78,1.11-1.76,1.99-2.93,2.64-1.17.65-2.47.98-3.91.98-1.04,0-2.08-.16-3.12-.49-.98-.33-1.86-.81-2.64-1.46-.78-.72-1.43-1.56-1.95-2.54-.46-.98-.68-2.12-.68-3.42,0-1.04.16-2.08.49-3.12.39-1.11.91-2.05,1.56-2.83.65-.85,1.43-1.53,2.34-2.05.91-.52,1.92-.78,3.03-.78.72,0,1.4.07,2.05.2.13.13.29.26.49.39.26.07.46.1.59.1.52,0,.78-.46.78-1.37ZM264.06,110.45c2.28-8.72,5.6-16.8,9.96-24.22,4.43-7.42,9.47-13.83,15.14-19.24,5.73-5.47,11.91-9.73,18.55-12.79,6.71-3.06,13.44-4.59,20.21-4.59,5.47,0,10.06.94,13.77,2.83,3.78,1.82,6.8,4.3,9.08,7.42,2.28,3.12,3.91,6.74,4.88,10.84.98,4.1,1.46,8.4,1.46,12.89,0,4.88-.49,9.77-1.46,14.65-.91,4.88-2.12,9.54-3.61,13.96-.91,2.8-1.95,5.5-3.12,8.1-1.17,2.61-2.41,5.14-3.71,7.62.91,2.15,2.25,3.91,4,5.27,1.76,1.3,4.2,1.95,7.32,1.95,1.82,0,3.78-.29,5.86-.88,2.08-.59,4.17-1.53,6.25-2.83,2.15-1.37,4.23-3.12,6.25-5.27,2.08-2.15,4-4.78,5.76-7.91l5.08-8.99,2.64,1.86-5.08,8.98c-2.47,4.36-5.01,7.81-7.62,10.35-2.54,2.47-5.01,4.36-7.42,5.66s-4.69,2.15-6.84,2.54c-2.08.32-3.87.49-5.37.49-3.06,0-5.79-.39-8.2-1.17-2.41-.85-4.56-1.95-6.45-3.32-3.26,5.21-6.87,9.93-10.84,14.16-3.91,4.23-8.04,7.85-12.4,10.84s-8.89,5.31-13.57,6.93c-4.62,1.63-9.24,2.44-13.87,2.44s-8.79-.81-12.5-2.44c-3.65-1.69-6.74-4.1-9.28-7.23s-4.49-6.93-5.86-11.43c-1.37-4.56-2.05-9.67-2.05-15.33,0-3.58.26-7.23.78-10.94.52-3.78,1.27-7.52,2.25-11.23ZM292.19,164.16c3.78,0,7.58-.85,11.43-2.54,3.91-1.76,7.71-4.23,11.43-7.42,3.78-3.19,7.39-7.03,10.84-11.52,3.52-4.56,6.74-9.6,9.67-15.14-.78-1.5-1.37-3.03-1.76-4.59-.33-1.63-.49-3.29-.49-4.98,0-1.89.26-3.74.78-5.57.52-1.89,1.3-3.61,2.34-5.18,1.11-1.63,2.47-3.09,4.1-4.39,1.69-1.3,3.65-2.34,5.86-3.12.98-3.65,1.79-7.42,2.44-11.33.65-3.97.98-7.88.98-11.72,0-3.12-.29-6.09-.88-8.89-.59-2.86-1.6-5.34-3.03-7.42-1.37-2.08-3.26-3.74-5.66-4.98-2.34-1.24-5.27-1.86-8.79-1.86-5.08,0-10.12,1.37-15.14,4.1-4.95,2.67-9.67,6.48-14.16,11.43-4.43,4.88-8.46,10.74-12.11,17.58s-6.67,14.39-9.08,22.66c-1.63,5.53-2.9,11.1-3.81,16.7-.85,5.53-1.27,10.58-1.27,15.14,0,15.36,5.44,23.05,16.31,23.05ZM334.47,218.65c-5.21,0-9.21-1.5-12.01-4.49-2.8-2.93-4.2-7.23-4.2-12.89,0-3.32.81-5.93,2.44-7.81,1.56-1.82,3.74-2.73,6.54-2.73,2.28,0,4.07.62,5.37,1.85s1.95,2.93,1.95,5.08-.52,3.78-1.56,5.08c-1.11,1.37-2.51,2.05-4.2,2.05-.72,0-1.27-.1-1.66-.29-.46-.2-.98-.29-1.56-.29-.33,0-.55.07-.68.2-.13.19-.2.62-.2,1.27,0,2.8.81,4.95,2.44,6.44,1.56,1.56,3.81,2.34,6.74,2.34,2.54,0,4.92-.65,7.13-1.95,2.21-1.3,4.39-3.38,6.54-6.25,2.08-2.8,4.17-6.45,6.25-10.94,2.08-4.49,4.3-9.96,6.64-16.41l46.29-127.44h14.45l-46,126.66c-4.82,13.15-10.74,23.18-17.77,30.08-7.03,6.97-14.68,10.45-22.95,10.45ZM414.65,25.88c0-2.28.78-4.23,2.34-5.86,1.63-1.63,3.58-2.44,5.86-2.44s4.2.81,5.76,2.44c1.63,1.56,2.44,3.48,2.44,5.76,0,1.11-.23,2.18-.68,3.22-.39.98-.98,1.82-1.76,2.54-.72.72-1.6,1.3-2.64,1.76-.98.39-2.05.59-3.22.59-2.28,0-4.2-.75-5.76-2.25-1.56-1.56-2.34-3.48-2.34-5.76ZM477.93,169.04c-11.78,0-20.87-3.06-27.25-9.18-6.38-6.19-9.57-15.36-9.57-27.54,0-3.32.26-6.84.78-10.55.46-3.71,1.2-7.52,2.25-11.43,2.34-8.72,5.63-16.8,9.86-24.22,4.3-7.42,9.21-13.83,14.75-19.24,5.53-5.4,11.49-9.64,17.87-12.7,6.38-3.06,12.79-4.59,19.24-4.59s11.62,1.53,15.33,4.59c3.78,3.06,5.66,7.36,5.66,12.89,0,3.12-.62,6.18-1.85,9.18-1.24,2.99-3.03,5.83-5.37,8.5-2.34,2.67-5.18,5.18-8.5,7.52-3.26,2.28-6.93,4.26-11.04,5.96-5.08,2.15-10.68,3.78-16.8,4.88-6.12,1.04-13.09,1.56-20.9,1.56-1.89,5.27-3.39,10.77-4.49,16.5-1.04,5.66-1.56,11.46-1.56,17.38,0,9.05,1.89,15.59,5.66,19.63,3.84,3.97,9.86,5.96,18.07,5.96,6.84,0,13.35-1.3,19.53-3.91,6.18-2.67,11.91-6.15,17.19-10.45,5.27-4.3,10.09-9.18,14.45-14.65,4.36-5.53,8.17-11.17,11.43-16.89l5.08-8.99,2.64,1.86-5.08,8.98c-4.04,7.1-8.46,13.64-13.28,19.63-4.75,5.99-9.96,11.16-15.62,15.53-5.6,4.3-11.62,7.68-18.07,10.16-6.38,2.41-13.18,3.61-20.41,3.61ZM508.59,53.52c-4.1,0-8.3,1.2-12.6,3.61-4.23,2.41-8.33,5.76-12.3,10.06-3.97,4.23-7.68,9.24-11.13,15.04-3.45,5.79-6.45,12.11-8.98,18.95,7.16-.13,13.28-.75,18.36-1.86,5.08-1.17,9.51-2.64,13.28-4.39,2.99-1.37,5.89-3.12,8.69-5.27,2.86-2.21,5.37-4.72,7.52-7.52,2.21-2.8,3.97-5.83,5.27-9.08,1.37-3.26,2.05-6.64,2.05-10.16,0-1.76-.26-3.22-.78-4.39-.52-1.17-1.24-2.12-2.15-2.83-.91-.78-1.98-1.33-3.22-1.66-1.24-.33-2.57-.49-4-.49ZM567.97,93.46c5.08-8.66,9.73-15.92,13.97-21.78,4.23-5.86,8.3-10.55,12.21-14.06,3.97-3.52,7.91-6.02,11.82-7.52,3.97-1.5,8.2-2.25,12.7-2.25,7.42,0,13.09,1.73,16.99,5.18,3.97,3.45,5.96,8.43,5.96,14.94,0,5.47-1.37,10.45-4.1,14.94-2.67,4.49-6.54,8.4-11.62,11.72-1.63,1.04-3.42,2.02-5.37,2.93-1.89.91-4.07,1.82-6.54,2.73-2.47.91-5.27,1.86-8.4,2.83-3.12.91-6.7,1.86-10.74,2.83v.39c8.01.52,14.13,2.31,18.36,5.37,4.3,3.06,6.45,6.93,6.45,11.62,0,2.08-.36,4.26-1.07,6.54-.72,2.21-1.53,4.49-2.44,6.84-.85,2.34-1.63,4.72-2.34,7.13-.72,2.34-1.08,4.65-1.08,6.93,0,3.97,1.27,7.19,3.81,9.67s6.28,3.71,11.23,3.71c3.97,0,7.91-.91,11.82-2.73,3.91-1.82,7.84-4.59,11.82-8.3,3.97-3.78,8.01-8.53,12.11-14.26,4.17-5.79,8.5-12.66,12.99-20.61l5.08-8.99,2.64,1.86-5.08,8.98c-5.34,9.44-10.29,17.32-14.84,23.63-4.56,6.25-9.05,11.26-13.48,15.04-4.36,3.71-8.76,6.35-13.18,7.91-4.43,1.56-9.18,2.34-14.26,2.34-3,0-5.86-.29-8.59-.88-2.73-.52-5.14-1.43-7.23-2.73-2.08-1.3-3.74-3.06-4.98-5.27-1.24-2.21-1.85-4.98-1.85-8.3,0-2.6.32-5.24.98-7.91.72-2.73,1.47-5.37,2.25-7.91.85-2.6,1.59-5.11,2.25-7.52.72-2.41,1.08-4.66,1.08-6.74,0-4.04-1.63-7.42-4.88-10.16s-8.3-4.2-15.14-4.39v-.49c6.84-1.89,12.96-4.23,18.36-7.03,5.47-2.8,10.06-5.86,13.77-9.18,7.23-6.58,10.84-14.29,10.84-23.14,0-10.55-4.88-15.82-14.65-15.82-3.84,0-7.62.91-11.33,2.73-3.65,1.76-7.55,4.92-11.72,9.47-4.17,4.49-8.76,10.58-13.77,18.26-4.95,7.68-10.65,17.38-17.09,29.1l-20.51,56.06h-14.45L587.5,0h14.55l-34.08,93.46ZM673.93,51.46h28.51l9.28-25.59h14.45l-9.28,25.59h29.3v3.91h-30.76l-23.44,64.45c-.91,2.54-1.82,5.14-2.73,7.81-.85,2.67-1.63,5.31-2.34,7.91-.65,2.54-1.2,5.01-1.66,7.42-.39,2.34-.59,4.49-.59,6.45,0,4.49,1.2,8.07,3.61,10.74,2.47,2.67,6.18,4,11.13,4s9.51-.91,14.06-2.73c4.56-1.82,9.05-4.62,13.48-8.4,4.43-3.78,8.82-8.53,13.18-14.26,4.36-5.79,8.76-12.63,13.18-20.51l5.08-8.99,2.64,1.86-5.08,8.98c-5.14,9.11-10.12,16.8-14.94,23.05-4.82,6.18-9.6,11.2-14.36,15.04-4.69,3.84-9.47,6.61-14.35,8.3-4.82,1.69-9.83,2.54-15.04,2.54-3.97,0-7.49-.62-10.55-1.85-3.06-1.17-5.6-2.87-7.62-5.08-2.08-2.21-3.65-4.88-4.69-8.01-1.11-3.12-1.66-6.61-1.66-10.45,0-3.38.39-7.1,1.17-11.13.78-4.04,1.98-8.27,3.61-12.7l23.44-64.45h-27.05v-3.91ZM791.8,169.04c-11.78,0-20.87-3.06-27.25-9.18-6.38-6.19-9.57-15.36-9.57-27.54,0-3.32.26-6.84.78-10.55.45-3.71,1.2-7.52,2.25-11.43,2.34-8.72,5.63-16.8,9.86-24.22,4.3-7.42,9.21-13.83,14.75-19.24,5.53-5.4,11.49-9.64,17.87-12.7,6.38-3.06,12.79-4.59,19.24-4.59s11.62,1.53,15.33,4.59c3.78,3.06,5.66,7.36,5.66,12.89,0,3.12-.62,6.18-1.86,9.18-1.24,2.99-3.03,5.83-5.37,8.5-2.34,2.67-5.18,5.18-8.5,7.52-3.26,2.28-6.93,4.26-11.03,5.96-5.08,2.15-10.68,3.78-16.8,4.88-6.12,1.04-13.09,1.56-20.9,1.56-1.89,5.27-3.39,10.77-4.49,16.5-1.04,5.66-1.56,11.46-1.56,17.38,0,9.05,1.89,15.59,5.66,19.63,3.84,3.97,9.86,5.96,18.07,5.96,6.84,0,13.35-1.3,19.53-3.91,6.18-2.67,11.91-6.15,17.19-10.45,5.27-4.3,10.09-9.18,14.45-14.65,4.36-5.53,8.17-11.17,11.43-16.89l5.08-8.99,2.64,1.86-5.08,8.98c-4.04,7.1-8.46,13.64-13.28,19.63-4.75,5.99-9.96,11.16-15.62,15.53-5.6,4.3-11.62,7.68-18.07,10.16-6.38,2.41-13.18,3.61-20.41,3.61ZM822.46,53.52c-4.1,0-8.3,1.2-12.6,3.61-4.23,2.41-8.33,5.76-12.3,10.06-3.97,4.23-7.68,9.24-11.13,15.04-3.45,5.79-6.45,12.11-8.99,18.95,7.16-.13,13.28-.75,18.36-1.86,5.08-1.17,9.51-2.64,13.28-4.39,3-1.37,5.89-3.12,8.69-5.27,2.86-2.21,5.37-4.72,7.52-7.52,2.21-2.8,3.97-5.83,5.27-9.08,1.37-3.26,2.05-6.64,2.05-10.16,0-1.76-.26-3.22-.78-4.39-.52-1.17-1.24-2.12-2.15-2.83-.91-.78-1.99-1.33-3.22-1.66s-2.57-.49-4-.49ZM934.67,58.4c0-1.04-.68-2.08-2.05-3.12-1.3-1.11-3.22-1.66-5.76-1.66s-5.44.81-8.5,2.44c-3.06,1.56-6.54,4.36-10.45,8.4-3.91,4.04-8.3,9.54-13.18,16.5-4.82,6.97-10.29,15.85-16.41,26.66l-4.88,8.59-18.46,50.98h-14.55l42.19-115.72h14.45l-17.09,46.87c5.34-9.18,10.22-16.86,14.65-23.05,4.43-6.25,8.53-11.26,12.3-15.04,3.78-3.84,7.32-6.58,10.64-8.2,3.32-1.63,6.58-2.44,9.77-2.44,4.3,0,7.65,1.27,10.06,3.81,2.47,2.54,3.71,5.86,3.71,9.96,0,1.69-.23,3.32-.68,4.88-.39,1.5-1.01,2.8-1.86,3.91-.78,1.11-1.76,1.99-2.93,2.64-1.17.65-2.47.98-3.91.98-1.04,0-2.08-.16-3.12-.49-.98-.33-1.85-.81-2.64-1.46-.78-.72-1.43-1.56-1.95-2.54-.46-.98-.68-2.12-.68-3.42,0-1.04.16-2.08.49-3.12.39-1.11.91-2.05,1.56-2.83.65-.85,1.43-1.53,2.34-2.05.91-.52,1.92-.78,3.03-.78.72,0,1.4.07,2.05.2.13.13.29.26.49.39.26.07.46.1.59.1.52,0,.78-.46.78-1.37Z"/>
</svg>