<?xml version="1.0" encoding="UTF-8"?>
<svg id="Layer_1" data-name="Layer 1" xmlns="http://www.w3.org/2000/svg" viewBox="0 0 1305.28 361.71">
  <defs>
    <style>
      .cls-1 {
        fill: #fdfbf0;
      }
    </style>
  </defs>
  <path class="cls-1" d="M40.19,90.24L0,0h17.54l32.64,75.65h-5.5L77.18,0h16.9l-40.19,90.24h-13.7ZM123.83,91.52c-7.08,0-13.18-1.32-18.3-3.97-5.12-2.65-9.09-6.4-11.9-11.26-2.73-4.86-4.1-10.62-4.1-17.28s1.32-12.16,3.97-17.02c2.73-4.86,6.44-8.66,11.14-11.39,4.78-2.82,10.2-4.22,16.26-4.22s11.09,1.28,15.36,3.84c4.27,2.56,7.55,6.19,9.86,10.88,2.39,4.69,3.58,10.28,3.58,16.77v4.74h-47.23v-9.22h35.97l-2.05,1.92c0-5.8-1.28-10.24-3.84-13.31-2.56-3.16-6.23-4.74-11.01-4.74-3.58,0-6.66.85-9.22,2.56-2.47,1.62-4.39,3.97-5.76,7.04-1.28,2.99-1.92,6.57-1.92,10.75v.9c0,4.69.72,8.58,2.18,11.65,1.45,3.07,3.63,5.38,6.53,6.91s6.49,2.3,10.75,2.3c3.5,0,7-.51,10.5-1.54,3.5-1.11,6.7-2.82,9.6-5.12l4.48,10.75c-2.99,2.47-6.74,4.44-11.26,5.89-4.52,1.45-9.04,2.18-13.57,2.18ZM184.11,91.52c-7.42,0-12.93-2.01-16.51-6.02-3.5-4.1-5.25-10.07-5.25-17.92V0h16v66.82c0,2.47.34,4.61,1.02,6.4.77,1.71,1.88,2.99,3.33,3.84s3.24,1.28,5.38,1.28c.94,0,1.88-.04,2.82-.13.94-.09,1.83-.26,2.69-.51l-.26,12.67c-1.54.34-3.07.6-4.61.77-1.45.26-2.99.38-4.61.38ZM203.23,90.24V0h16v54.27h.26l25.22-26.62h19.33l-31.49,33.28v-6.66l33.28,35.97h-19.58l-26.75-27.9h-.26v27.9h-16ZM299.15,91.52c-6.49,0-12.12-1.32-16.9-3.97-4.78-2.65-8.49-6.4-11.14-11.26-2.64-4.95-3.97-10.75-3.97-17.41s1.32-12.42,3.97-17.28c2.65-4.86,6.36-8.62,11.14-11.26,4.78-2.65,10.41-3.97,16.9-3.97s12.12,1.32,16.9,3.97,8.49,6.4,11.14,11.26c2.65,4.86,3.97,10.62,3.97,17.28s-1.32,12.46-3.97,17.41c-2.64,4.86-6.36,8.62-11.14,11.26s-10.41,3.97-16.9,3.97ZM299.15,79.36c4.78,0,8.62-1.71,11.52-5.12,2.9-3.5,4.35-8.62,4.35-15.36s-1.45-11.9-4.35-15.23c-2.9-3.41-6.74-5.12-11.52-5.12s-8.62,1.71-11.52,5.12c-2.9,3.33-4.35,8.41-4.35,15.23s1.45,11.86,4.35,15.36c2.9,3.41,6.74,5.12,11.52,5.12ZM344.61,90.24V27.65h15.62v12.54h-1.41c1.11-2.9,2.65-5.38,4.61-7.42,1.96-2.05,4.31-3.63,7.04-4.74,2.73-1.11,5.76-1.66,9.09-1.66,5.04,0,9.17,1.19,12.42,3.58,3.24,2.39,5.5,6.06,6.78,11.01h-1.79c1.71-4.52,4.52-8.06,8.45-10.62,3.93-2.65,8.45-3.97,13.57-3.97,4.78,0,8.7.94,11.78,2.82,3.16,1.88,5.5,4.74,7.04,8.58,1.54,3.75,2.3,8.53,2.3,14.34v38.14h-16v-37.5c0-4.78-.81-8.28-2.43-10.5-1.54-2.22-4.18-3.33-7.94-3.33-2.73,0-5.12.68-7.17,2.05-2.05,1.28-3.63,3.16-4.74,5.63-1.02,2.47-1.54,5.46-1.54,8.96v34.69h-16v-37.5c0-4.78-.81-8.28-2.43-10.5-1.54-2.22-4.14-3.33-7.81-3.33-2.82,0-5.25.68-7.3,2.05-1.96,1.28-3.5,3.16-4.61,5.63-1.02,2.47-1.54,5.46-1.54,8.96v34.69h-16ZM456.86,90.24V27.65h15.62v12.54h-1.41c1.11-2.9,2.65-5.38,4.61-7.42,1.96-2.05,4.31-3.63,7.04-4.74,2.73-1.11,5.76-1.66,9.09-1.66,5.04,0,9.17,1.19,12.42,3.58,3.24,2.39,5.5,6.06,6.78,11.01h-1.79c1.71-4.52,4.52-8.06,8.45-10.62,3.92-2.65,8.45-3.97,13.57-3.97,4.78,0,8.7.94,11.78,2.82,3.16,1.88,5.5,4.74,7.04,8.58,1.54,3.75,2.3,8.53,2.3,14.34v38.14h-16v-37.5c0-4.78-.81-8.28-2.43-10.5-1.54-2.22-4.18-3.33-7.94-3.33-2.73,0-5.12.68-7.17,2.05-2.05,1.28-3.63,3.16-4.74,5.63-1.02,2.47-1.54,5.46-1.54,8.96v34.69h-16v-37.5c0-4.78-.81-8.28-2.43-10.5-1.54-2.22-4.14-3.33-7.81-3.33-2.82,0-5.25.68-7.3,2.05-1.96,1.28-3.5,3.16-4.61,5.63-1.02,2.47-1.54,5.46-1.54,8.96v34.69h-16ZM599.7,91.52c-7.08,0-13.18-1.32-18.3-3.97-5.12-2.65-9.09-6.4-11.9-11.26-2.73-4.86-4.1-10.62-4.1-17.28s1.32-12.16,3.97-17.02c2.73-4.86,6.44-8.66,11.14-11.39,4.78-2.82,10.2-4.22,16.26-4.22s11.09,1.28,15.36,3.84c4.27,2.56,7.55,6.19,9.86,10.88,2.39,4.69,3.58,10.28,3.58,16.77v4.74h-47.23v-9.22h35.97l-2.05,1.92c0-5.8-1.28-10.24-3.84-13.31-2.56-3.16-6.23-4.74-11.01-4.74-3.58,0-6.66.85-9.22,2.56-2.48,1.62-4.4,3.97-5.76,7.04-1.28,2.99-1.92,6.57-1.92,10.75v.9c0,4.69.73,8.58,2.18,11.65,1.45,3.07,3.63,5.38,6.53,6.91s6.48,2.3,10.75,2.3c3.5,0,7-.51,10.5-1.54,3.5-1.11,6.7-2.82,9.6-5.12l4.48,10.75c-2.99,2.47-6.74,4.44-11.26,5.89s-9.04,2.18-13.57,2.18ZM638.23,90.24V27.65h15.62v12.54h-1.41c1.88-4.52,4.78-7.94,8.7-10.24,4.01-2.39,8.53-3.58,13.57-3.58s9.17.94,12.42,2.82c3.24,1.88,5.67,4.74,7.3,8.58,1.62,3.75,2.43,8.53,2.43,14.34v38.14h-16v-37.38c0-3.24-.43-5.89-1.28-7.94-.77-2.05-2.01-3.54-3.71-4.48-1.62-1.02-3.71-1.54-6.27-1.54-3.07,0-5.76.68-8.06,2.05-2.3,1.28-4.1,3.16-5.38,5.63-1.28,2.39-1.92,5.21-1.92,8.45v35.2h-16ZM38.4,266.52c-8.36,0-14.59-2.09-18.69-6.27-4.1-4.18-6.14-10.28-6.14-18.3v-27.26H1.54v-12.03h12.03v-18.69h16v18.69h18.94v12.03h-18.94v26.37c0,4.1.9,7.17,2.69,9.22,1.79,2.05,4.69,3.07,8.7,3.07,1.19,0,2.43-.13,3.71-.38,1.28-.34,2.6-.68,3.97-1.02l2.43,11.78c-1.54.85-3.5,1.54-5.89,2.05-2.3.51-4.57.77-6.78.77ZM57.83,189.21v-15.62h17.92v15.62h-17.92ZM58.85,265.24v-62.59h16v62.59h-16ZM113.24,266.52c-7.42,0-12.93-2-16.51-6.02-3.5-4.1-5.25-10.07-5.25-17.92v-67.58h16v66.82c0,2.48.34,4.61,1.02,6.4.77,1.71,1.88,2.99,3.33,3.84,1.45.85,3.24,1.28,5.38,1.28.94,0,1.88-.04,2.82-.13.94-.08,1.83-.26,2.69-.51l-.26,12.67c-1.54.34-3.07.6-4.61.77-1.45.26-2.99.38-4.61.38ZM167.11,265.24v-62.59h15.62v12.54h-1.41c1.11-2.9,2.65-5.38,4.61-7.42,1.96-2.05,4.31-3.63,7.04-4.74,2.73-1.11,5.76-1.66,9.09-1.66,5.04,0,9.17,1.2,12.42,3.58,3.24,2.39,5.5,6.06,6.78,11.01h-1.79c1.71-4.52,4.52-8.06,8.45-10.62,3.93-2.65,8.45-3.97,13.57-3.97,4.78,0,8.7.94,11.78,2.82,3.16,1.88,5.5,4.74,7.04,8.58,1.54,3.76,2.3,8.53,2.3,14.34v38.14h-16v-37.5c0-4.78-.81-8.28-2.43-10.5-1.54-2.22-4.18-3.33-7.94-3.33-2.73,0-5.12.68-7.17,2.05-2.05,1.28-3.63,3.16-4.74,5.63-1.02,2.48-1.54,5.46-1.54,8.96v34.69h-16v-37.5c0-4.78-.81-8.28-2.43-10.5-1.54-2.22-4.14-3.33-7.81-3.33-2.82,0-5.25.68-7.3,2.05-1.96,1.28-3.5,3.16-4.61,5.63-1.02,2.48-1.54,5.46-1.54,8.96v34.69h-16ZM278.08,189.21v-15.62h17.92v15.62h-17.92ZM279.1,265.24v-62.59h16v62.59h-16ZM340.4,266.52c-8.36,0-14.59-2.09-18.69-6.27s-6.14-10.28-6.14-18.3v-27.26h-12.03v-12.03h12.03v-18.69h16v18.69h18.94v12.03h-18.94v26.37c0,4.1.9,7.17,2.69,9.22,1.79,2.05,4.69,3.07,8.7,3.07,1.2,0,2.43-.13,3.71-.38,1.28-.34,2.6-.68,3.97-1.02l2.43,11.78c-1.54.85-3.5,1.54-5.89,2.05-2.3.51-4.57.77-6.78.77Z"/>
  <path class="cls-1" d="M439.26,314.05c-17.9,0-26.86-10.55-26.86-31.64,0-9.5,1.63-19.4,4.88-29.69,3.26-10.35,8.01-20.77,14.26-31.25,6.38-10.61,13.61-20.15,21.68-28.61,8.07-8.46,16.7-15.62,25.88-21.48,9.18-5.93,18.78-10.45,28.81-13.57,10.03-3.12,20.18-4.69,30.47-4.69,7.1,0,13.38.72,18.85,2.15,5.47,1.37,10.06,3.42,13.77,6.15,3.78,2.67,6.64,5.99,8.59,9.96,1.95,3.91,2.93,8.4,2.93,13.48,0,6.97-1.63,13.51-4.88,19.63-3.26,6.06-7.72,11.36-13.38,15.92-5.66,4.49-12.34,8.07-20.02,10.74-7.62,2.67-15.79,4.04-24.51,4.1v-1.07c7.68-1.3,14.62-3.45,20.8-6.45,6.18-3.06,11.43-6.8,15.72-11.23,4.36-4.49,7.68-9.6,9.96-15.33,2.34-5.73,3.52-11.91,3.52-18.56s-1.3-12.01-3.91-15.92c-2.54-3.97-6.64-6.74-12.3-8.3-3.52,1.5-7,3.65-10.45,6.45-3.39,2.8-6.22,5.96-8.5,9.47-.72,1.04-1.4,2.15-2.05,3.32-.65,1.11-1.4,2.54-2.25,4.3-.78,1.76-1.72,3.97-2.83,6.64-1.04,2.6-2.31,5.93-3.81,9.96-1.5,3.97-3.29,8.79-5.37,14.45-2.08,5.6-4.52,12.27-7.32,20.02-5.01,13.8-10.22,25.81-15.62,36.03-5.4,10.16-11.07,18.59-16.99,25.29-5.92,6.64-12.14,11.59-18.65,14.84-6.45,3.26-13.25,4.88-20.41,4.88ZM513.68,190.12c2.21-3.78,4.72-7.32,7.52-10.65,2.8-3.38,5.73-6.48,8.79-9.28,3.12-2.8,6.35-5.24,9.67-7.32,3.39-2.15,6.77-3.91,10.16-5.27-1.56-.26-3.22-.46-4.98-.59-1.69-.13-3.52-.19-5.47-.19-9.77,0-19.5,1.53-29.2,4.59-9.7,3.06-19.01,7.45-27.93,13.18-8.92,5.73-17.32,12.66-25.2,20.8-7.81,8.14-14.78,17.29-20.9,27.44-5.99,9.9-10.55,19.92-13.67,30.08-3.06,10.09-4.59,19.95-4.59,29.59s1.66,16.54,4.98,20.9,8.53,6.54,15.62,6.54c3.39,0,6.54-.42,9.47-1.27,2.93-.85,5.73-2.25,8.4-4.2,2.74-1.95,5.37-4.49,7.91-7.62s5.11-7,7.71-11.62c2.67-4.62,5.37-10.03,8.11-16.21,2.8-6.18,5.79-13.28,8.98-21.29,2.8-7.16,5.24-13.38,7.32-18.65,2.15-5.34,4-9.93,5.57-13.77,1.56-3.84,2.9-7.06,4-9.67,1.11-2.6,2.12-4.82,3.03-6.64.91-1.89,1.73-3.52,2.44-4.88.72-1.37,1.46-2.7,2.25-4ZM585.46,253.5c2.28-8.72,5.6-16.8,9.96-24.22,4.43-7.42,9.47-13.84,15.14-19.24,5.73-5.47,11.91-9.73,18.55-12.79,6.71-3.06,13.44-4.59,20.22-4.59,5.47,0,10.06.94,13.77,2.83,3.78,1.82,6.8,4.3,9.08,7.42,2.28,3.12,3.91,6.74,4.88,10.84.98,4.1,1.46,8.4,1.46,12.89,0,4.88-.49,9.77-1.46,14.65-.91,4.88-2.12,9.54-3.61,13.96-.91,2.8-1.95,5.5-3.12,8.1s-2.41,5.14-3.71,7.62c.91,2.15,2.25,3.91,4,5.27,1.76,1.3,4.2,1.95,7.32,1.95,1.82,0,3.78-.29,5.86-.88,2.08-.59,4.17-1.53,6.25-2.83,2.15-1.37,4.23-3.12,6.25-5.27,2.08-2.15,4-4.79,5.76-7.91l5.08-8.98,2.64,1.85-5.08,8.99c-2.47,4.36-5.01,7.81-7.62,10.35-2.54,2.47-5.01,4.36-7.42,5.66s-4.69,2.15-6.84,2.54c-2.08.33-3.87.49-5.37.49-3.06,0-5.79-.39-8.2-1.17-2.41-.85-4.56-1.95-6.45-3.32-3.26,5.21-6.87,9.93-10.84,14.16-3.91,4.23-8.04,7.85-12.4,10.84-4.36,2.99-8.89,5.31-13.57,6.93-4.62,1.63-9.24,2.44-13.87,2.44s-8.79-.81-12.5-2.44c-3.65-1.69-6.74-4.1-9.28-7.23s-4.49-6.93-5.86-11.42c-1.37-4.56-2.05-9.67-2.05-15.33,0-3.58.26-7.23.78-10.94.52-3.78,1.27-7.52,2.25-11.23ZM613.58,307.21c3.78,0,7.58-.85,11.43-2.54,3.91-1.76,7.71-4.23,11.43-7.42,3.78-3.19,7.39-7.03,10.84-11.52,3.52-4.56,6.74-9.6,9.67-15.14-.78-1.5-1.37-3.03-1.76-4.59-.33-1.63-.49-3.29-.49-4.98,0-1.89.26-3.74.78-5.57.52-1.89,1.3-3.61,2.34-5.18,1.11-1.63,2.47-3.09,4.1-4.39,1.69-1.3,3.65-2.34,5.86-3.12.98-3.65,1.79-7.42,2.44-11.33.65-3.97.98-7.88.98-11.72,0-3.12-.29-6.09-.88-8.89-.59-2.87-1.59-5.34-3.03-7.42-1.37-2.08-3.26-3.74-5.66-4.98-2.34-1.24-5.27-1.86-8.79-1.86-5.08,0-10.12,1.37-15.14,4.1-4.95,2.67-9.67,6.48-14.16,11.43-4.43,4.88-8.46,10.74-12.11,17.58-3.65,6.84-6.67,14.39-9.08,22.66-1.63,5.53-2.9,11.1-3.81,16.7-.85,5.53-1.27,10.58-1.27,15.14,0,15.36,5.44,23.05,16.31,23.05ZM780.08,201.45c0-1.04-.68-2.08-2.05-3.12-1.3-1.11-3.22-1.66-5.76-1.66s-5.44.81-8.5,2.44c-3.06,1.56-6.54,4.36-10.45,8.4-3.91,4.04-8.3,9.54-13.18,16.5-4.82,6.97-10.29,15.85-16.41,26.66l-4.88,8.59-18.46,50.98h-14.55l42.19-115.72h14.45l-17.09,46.88c5.34-9.18,10.22-16.86,14.65-23.05,4.43-6.25,8.53-11.26,12.3-15.04,3.78-3.84,7.33-6.57,10.65-8.2,3.32-1.63,6.57-2.44,9.77-2.44,4.3,0,7.65,1.27,10.06,3.81,2.47,2.54,3.71,5.86,3.71,9.96,0,1.69-.23,3.32-.68,4.88-.39,1.5-1.01,2.8-1.85,3.91-.78,1.11-1.76,1.99-2.93,2.64s-2.47.98-3.91.98c-1.04,0-2.08-.16-3.12-.49-.98-.32-1.85-.81-2.64-1.46-.78-.72-1.43-1.56-1.95-2.54-.46-.98-.68-2.12-.68-3.42,0-1.04.16-2.08.49-3.12.39-1.11.91-2.05,1.56-2.83.65-.85,1.43-1.53,2.34-2.05.91-.52,1.92-.78,3.03-.78.72,0,1.4.07,2.05.2.13.13.29.26.49.39.26.07.46.1.59.1.52,0,.78-.46.78-1.37ZM790.44,194.52h28.52l9.28-25.59h14.45l-9.28,25.59h29.3v3.91h-30.76l-23.44,64.45c-.91,2.54-1.82,5.14-2.73,7.81-.85,2.67-1.63,5.31-2.34,7.91-.65,2.54-1.21,5.01-1.66,7.42-.39,2.34-.59,4.49-.59,6.45,0,4.49,1.21,8.07,3.61,10.74,2.47,2.67,6.18,4,11.13,4s9.51-.91,14.06-2.74,9.05-4.62,13.48-8.4,8.82-8.53,13.18-14.26c4.36-5.79,8.76-12.63,13.18-20.51l5.08-8.98,2.64,1.85-5.08,8.99c-5.14,9.11-10.12,16.8-14.94,23.05-4.82,6.18-9.6,11.2-14.36,15.04-4.69,3.84-9.47,6.61-14.36,8.3-4.82,1.69-9.83,2.54-15.04,2.54-3.97,0-7.49-.62-10.55-1.86-3.06-1.17-5.6-2.86-7.62-5.08-2.08-2.21-3.65-4.88-4.69-8.01-1.11-3.12-1.66-6.61-1.66-10.45,0-3.39.39-7.1,1.17-11.13.78-4.04,1.99-8.27,3.61-12.69l23.44-64.45h-27.05v-3.91ZM867.49,194.52h28.42l4-10.94c4.75-13.09,10.9-23.11,18.46-30.08s15.98-10.45,25.29-10.45c2.93,0,5.63.39,8.1,1.17,2.47.72,4.59,1.76,6.35,3.12,1.76,1.37,3.12,2.99,4.1,4.88,1.04,1.82,1.56,3.84,1.56,6.06,0,3.12-.78,5.57-2.34,7.32-1.56,1.69-3.71,2.54-6.45,2.54-2.21,0-3.97-.62-5.27-1.85-1.24-1.3-1.86-3.06-1.86-5.27,0-2.08.55-3.78,1.66-5.08,1.11-1.3,2.57-1.95,4.39-1.95.59,0,1.24.13,1.95.39.13.07.29.13.49.2.2.07.36.1.49.1.59,0,.88-.39.88-1.17,0-.98-.42-1.82-1.27-2.54-.78-.72-1.82-1.3-3.12-1.76-1.24-.52-2.64-.91-4.2-1.17-1.5-.26-2.96-.39-4.4-.39-3.12,0-6.02.65-8.69,1.95-2.67,1.3-5.21,3.39-7.62,6.25-2.41,2.8-4.75,6.45-7.03,10.94-2.28,4.43-4.56,9.77-6.84,16.02l-4.3,11.72h29.49v3.91h-30.86l-59.38,163.28h-14.45l59.38-163.28h-26.95v-3.91ZM946.59,253.5c2.28-8.72,5.6-16.8,9.96-24.22,4.43-7.42,9.47-13.84,15.14-19.24,5.73-5.47,11.91-9.73,18.55-12.79,6.71-3.06,13.44-4.59,20.21-4.59,5.47,0,10.06.94,13.77,2.83,3.78,1.82,6.81,4.3,9.09,7.42,2.28,3.12,3.9,6.74,4.88,10.84.98,4.1,1.46,8.4,1.46,12.89,0,4.88-.48,9.77-1.46,14.65-.91,4.88-2.12,9.54-3.61,13.96-.92,2.8-1.96,5.5-3.13,8.1-1.17,2.6-2.41,5.14-3.71,7.62.91,2.15,2.25,3.91,4,5.27,1.76,1.3,4.2,1.95,7.33,1.95,1.82,0,3.77-.29,5.86-.88,2.08-.59,4.16-1.53,6.25-2.83,2.15-1.37,4.23-3.12,6.25-5.27,2.08-2.15,4-4.79,5.76-7.91l5.08-8.98,2.63,1.85-5.07,8.99c-2.48,4.36-5.02,7.81-7.62,10.35-2.54,2.47-5.01,4.36-7.42,5.66-2.41,1.3-4.69,2.15-6.84,2.54-2.08.33-3.87.49-5.37.49-3.06,0-5.79-.39-8.2-1.17-2.41-.85-4.56-1.95-6.45-3.32-3.25,5.21-6.87,9.93-10.84,14.16-3.9,4.23-8.04,7.85-12.4,10.84-4.36,2.99-8.89,5.31-13.58,6.93-4.62,1.63-9.24,2.44-13.87,2.44s-8.79-.81-12.5-2.44c-3.65-1.69-6.74-4.1-9.28-7.23-2.54-3.12-4.49-6.93-5.86-11.42-1.37-4.56-2.05-9.67-2.05-15.33,0-3.58.26-7.23.78-10.94.52-3.78,1.27-7.52,2.25-11.23ZM974.71,307.21c3.78,0,7.58-.85,11.42-2.54,3.91-1.76,7.72-4.23,11.43-7.42,3.78-3.19,7.39-7.03,10.84-11.52,3.52-4.56,6.74-9.6,9.67-15.14-.78-1.5-1.37-3.03-1.76-4.59-.32-1.63-.48-3.29-.48-4.98,0-1.89.26-3.74.78-5.57.52-1.89,1.3-3.61,2.34-5.18,1.11-1.63,2.47-3.09,4.1-4.39,1.7-1.3,3.65-2.34,5.86-3.12.98-3.65,1.79-7.42,2.44-11.33.65-3.97.98-7.88.98-11.72,0-3.12-.29-6.09-.88-8.89-.59-2.87-1.59-5.34-3.03-7.42-1.36-2.08-3.25-3.74-5.66-4.98-2.34-1.24-5.27-1.86-8.79-1.86-5.08,0-10.12,1.37-15.14,4.1-4.95,2.67-9.67,6.48-14.16,11.43-4.43,4.88-8.46,10.74-12.11,17.58s-6.67,14.39-9.08,22.66c-1.63,5.53-2.9,11.1-3.81,16.7-.85,5.53-1.27,10.58-1.27,15.14,0,15.36,5.44,23.05,16.31,23.05ZM1108.01,143.05h14.55l-43.65,119.83c-.91,2.54-1.82,5.14-2.73,7.81-.91,2.6-1.73,5.21-2.44,7.81-.65,2.54-1.21,5.01-1.66,7.42-.39,2.34-.59,4.52-.59,6.54,0,4.49,1.17,8.07,3.52,10.74,2.4,2.67,6.12,4,11.13,4,4.36,0,8.56-.94,12.6-2.83,4.1-1.89,8.13-4.72,12.11-8.5,4.03-3.84,8.07-8.63,12.1-14.36,4.04-5.79,8.24-12.53,12.6-20.21l5.08-8.98,2.64,1.85-5.08,8.99c-4.75,8.4-9.31,15.69-13.67,21.88-4.3,6.12-8.63,11.2-12.99,15.23-4.3,3.97-8.69,6.93-13.18,8.89-4.5,1.95-9.28,2.93-14.36,2.93-3.97,0-7.49-.62-10.55-1.86-2.99-1.17-5.5-2.86-7.52-5.08-2.08-2.21-3.64-4.88-4.68-8.01-1.05-3.12-1.57-6.61-1.57-10.45,0-3.39.39-7.06,1.18-11.03.78-4.04,1.98-8.3,3.61-12.79l43.55-119.83ZM1161.63,194.52h14.45l-24.9,68.36c-.91,2.54-1.83,5.14-2.74,7.81-.91,2.6-1.72,5.21-2.44,7.81-.65,2.54-1.2,5.01-1.66,7.42-.39,2.34-.58,4.52-.58,6.54,0,4.49,1.17,8.07,3.51,10.74,2.41,2.67,6.12,4,11.13,4,4.37,0,8.57-.94,12.6-2.83,4.1-1.89,8.14-4.72,12.11-8.5,4.04-3.84,8.07-8.63,12.11-14.36,4.04-5.79,8.24-12.53,12.6-20.21l5.08-8.98,2.63,1.85-5.08,8.99c-4.75,8.4-9.31,15.69-13.67,21.88-4.29,6.12-8.62,11.2-12.99,15.23-4.29,3.97-8.69,6.93-13.18,8.89-4.49,1.95-9.28,2.93-14.35,2.93-3.98,0-7.49-.62-10.55-1.86-3-1.17-5.5-2.86-7.52-5.08-2.08-2.21-3.65-4.88-4.69-8.01s-1.56-6.61-1.56-10.45c0-3.39.42-7.1,1.27-11.13.78-4.04,1.95-8.27,3.51-12.69l24.91-68.36ZM1169.44,168.93c0-2.28.78-4.23,2.34-5.86,1.63-1.63,3.58-2.44,5.86-2.44s4.2.81,5.76,2.44c1.63,1.56,2.45,3.48,2.45,5.76,0,1.11-.23,2.18-.69,3.22-.39.98-.97,1.82-1.76,2.54-.71.72-1.59,1.3-2.63,1.76-.98.39-2.05.59-3.23.59-2.27,0-4.19-.75-5.76-2.25-1.56-1.56-2.34-3.48-2.34-5.76ZM1212.21,253.5c2.28-8.72,5.6-16.8,9.96-24.22,4.43-7.42,9.48-13.84,15.14-19.24,5.73-5.47,11.91-9.73,18.55-12.79,6.71-3.06,13.45-4.59,20.22-4.59,5.47,0,10.06.94,13.77,2.83,3.78,1.82,6.8,4.3,9.08,7.42,2.28,3.12,3.91,6.74,4.88,10.84.98,4.1,1.47,8.4,1.47,12.89,0,4.88-.49,9.77-1.47,14.65-.91,4.88-2.11,9.54-3.61,13.96-2.8,8.2-6.41,15.79-10.84,22.75-4.43,6.9-9.37,12.89-14.84,17.97-5.41,5.08-11.17,9.05-17.29,11.91-6.12,2.8-12.24,4.2-18.36,4.2-4.62,0-8.79-.81-12.5-2.44-3.64-1.69-6.74-4.1-9.27-7.23-2.54-3.12-4.5-6.93-5.86-11.42-1.37-4.56-2.05-9.67-2.05-15.33,0-3.58.26-7.23.78-10.94.52-3.78,1.27-7.52,2.24-11.23ZM1240.34,307.21c4.69,0,9.44-1.34,14.26-4,4.88-2.67,9.57-6.38,14.06-11.13,4.56-4.82,8.79-10.55,12.69-17.19,3.91-6.64,7.26-13.93,10.06-21.88.78-2.15,1.53-4.56,2.25-7.23.78-2.67,1.5-5.44,2.15-8.3.65-2.93,1.17-5.89,1.56-8.89.39-3.06.58-6.02.58-8.89,0-3.12-.29-6.09-.87-8.89-.59-2.87-1.6-5.34-3.03-7.42-1.37-2.08-3.26-3.74-5.67-4.98-2.34-1.24-5.27-1.86-8.78-1.86-5.08,0-10.13,1.37-15.14,4.1-4.95,2.67-9.67,6.48-14.16,11.43-4.43,4.88-8.46,10.74-12.11,17.58-3.65,6.84-6.67,14.39-9.08,22.66-1.63,5.53-2.9,11.1-3.81,16.7-.85,5.53-1.27,10.58-1.27,15.14,0,15.36,5.44,23.05,16.31,23.05Z"/>
</svg>