<?xml version="1.0" encoding="UTF-8"?>
<svg id="Layer_2" data-name="Layer 2" xmlns="http://www.w3.org/2000/svg" viewBox="0 0 182.38 182.42">
  <defs>
    <style>
      .cls-1, .cls-2, .cls-3 {
        stroke: #000;
      }

      .cls-1, .cls-2, .cls-4 {
        fill: #85c534;
      }

      .cls-1, .cls-3 {
        stroke-miterlimit: 10;
      }

      .cls-2 {
        stroke-miterlimit: 10;
        stroke-width: 1px;
      }

      .cls-3 {
        fill: none;
      }
    </style>
  </defs>
  <g id="Layer_1-2" data-name="Layer 1">
    <g id="Layer_11" data-name="Layer 11">
      <polygon class="cls-1" points="92.71 19.71 28.91 64.61 28.91 119.21 92.71 166.11 156.51 119.21 156.51 65.21 92.71 19.71"/>
      <polygon points="31.61 65.41 31.51 117.21 91.21 161.41 90.91 109.71 76.01 95.91 90.91 78.91 91.21 24.31 31.61 65.41"/>
      <polyline class="cls-4" points="81.01 44.11 41.81 70.21 41.81 111.71 79.11 140.61 79.11 111.71 62.41 92.31 81.01 74.11"/>
      <polygon points="72.91 100.61 37.11 98.21 37.81 85.11 73.31 88.01 72.91 100.61"/>
      <polyline points="154.51 117.41 93.91 161.41 94.11 24.31 154.51 66.61 154.41 80.41 146.61 72.01 130.91 62.01 105.01 45.81 105.11 86.01 147.41 90.41 147.71 94.71 104.81 96.41 104.21 137.61 139.11 116.71 146.31 112.01 154.41 103.21"/>
    </g>
    <g id="Layer_2-2" data-name="Layer 2">
      <g>
        <g>
          <path class="cls-1" d="M71.41,178.21c.8,2.8,3.5,4.3,6.1,3.5s4-3.8,3.2-6.5-3.5-4.3-6.1-3.5-4,3.8-3.2,6.5Z"/>
          <line class="cls-3" x1="84.11" y1="159.51" x2="79.21" y2="172.71"/>
          <path class="cls-1" d="M76.01,171.11v.3c1,.1,1.8.4,2.8.9l.5.4,4.6-12.9-3.2-2.5-.3.8-4.6,13.5"/>
        </g>
        <g>
          <path class="cls-1" d="M3.01,82.41c-2.7,2.2-3.3,6.2-1.4,9.1s5.7,3.4,8.4,1.2,3.3-6.2,1.4-9.1-5.7-3.4-8.4-1.2Z"/>
          <path class="cls-1" d="M28.81,85.21l-16.6-.2h0c.3,1.4.3,2.9.1,4.3v.5l16.4.5"/>
        </g>
        <g>
          <path class="cls-1" d="M145.51,159.11c2.9,1.1,6.1-.7,7.1-3.9s-.6-6.7-3.5-7.7-6.1.7-7.1,3.9.6,6.7,3.5,7.7Z"/>
          <path class="cls-1" d="M133.91,136.11l8.6,13.8h0c.9-1,2.1-1.9,3.3-2.5h.2c0-.1-8.4-14.1-8.4-14.1"/>
        </g>
        <g>
          <path class="cls-1" d="M177.41,77.01c2.2-1.7,2.6-5,1-7.3s-4.6-2.8-6.8-1.1-2.6,5-1,7.3,4.6,2.8,6.8,1.1Z"/>
          <path class="cls-1" d="M156.81,70.31l13.3.4h0c-.2.7-.3,1.4-.3,2.1s0,1,.2,1.7v.2l-13.2-.2"/>
        </g>
        <g>
          <ellipse class="cls-2" cx="155.59" cy="31.11" rx="7.7" ry="7.2" transform="translate(-2.06 13.13) rotate(-4.8)"/>
          <path class="cls-1" d="M136.81,50.81l12.5-15.6h0c1.1,1,2.6,1.9,4,2.5l1.5.4-13.1,16.2"/>
        </g>
        <g>
          <ellipse class="cls-1" cx="41.81" cy="162.21" rx="7.7" ry="7.2"/>
          <path class="cls-1" d="M43.51,155.21h0c1.5.6,1.7.7,3.4,1.9l1.7,1.6,12.7-15.7-4.8-3.4-12.9,15.8"/>
        </g>
        <g>
          <path class="cls-1" d="M38.31,31.01c-2.6-.9-5.3.6-6.1,3.3-.8,2.7.6,5.7,3.1,6.6,1.3.5,2.5.2,2.8,0,1.5-.5,2.9-1.8,3.3-3.4.7-2.4-.4-5.6-3.1-6.6h0v.1Z"/>
          <line class="cls-3" x1="45.21" y1="52.91" x2="38.11" y2="40.91"/>
          <path class="cls-1" d="M48.11,49.51l-7.3-10.7h0c-.6.9-1.4,1.6-2.4,2l-.6.2,7.3,11.9,3.6-2.4-.7-1h.1Z"/>
        </g>
        <g>
          <path class="cls-1" d="M177.21,134.61c3.3-.9,5.3-4.3,4.5-7.8s-4.1-5.5-7.3-4.7-5.3,4.3-4.5,7.8,4.1,5.5,7.3,4.7Z"/>
          <path class="cls-1" d="M171.41,123.91l-14.8-7.3v2.6l-2.6,1.9,15.7,7.4h0c0-1.5.8-3.8,1.8-4.6h0"/>
        </g>
        <g>
          <path class="cls-1" d="M64.01.81c-3.5-1.2-7.4,1.2-8.8,5.6-1.3,4.3.4,8.8,3.9,10.1s7.4-1.2,8.8-5.6-.4-8.8-3.9-10.1Z"/>
          <path class="cls-1" d="M67.21,12.91h0c-1.2,1.4-1.7,2.3-3.3,3.2l-1,.4,9.1,17.8,4.9-3.4-9.7-18.1"/>
        </g>
        <g>
          <path class="cls-1" d="M131.71,15.11c-1.4-3-4.8-4.2-7.6-2.7s-4,5.2-2.6,8.1,4.8,4.2,7.6,2.7,4-5.2,2.6-8.1Z"/>
          <path class="cls-1" d="M120.11,39.11l3.6-15.9h0c1.1.5,2.9.6,4,.5h.5l-3.8,18.5-4.3-3.1h0Z"/>
        </g>
        <g>
          <ellipse class="cls-1" cx="19.11" cy="128.31" rx="3.8" ry="4.1"/>
          <path class="cls-1" d="M20.91,124.71h0c.8.5,1.3,1.1,1.6,1.8l.2.4,7.5-6.7-1.2-.9v-1.8l-.5.5-7.5,6.8"/>
        </g>
        <g>
          <path class="cls-1" d="M117.71,164.81c1.4,1.7,3.8,1.9,5.4.4s1.8-4.1.4-5.8-3.8-1.9-5.4-.4-1.8,4.1-.4,5.8Z"/>
          <path class="cls-1" d="M118.91,157.91v.4c.9-.3,1.7-.3,2.6-.2h.3l-.6-13-2.8,2.1v.6l.5,10.5"/>
        </g>
        <g>
          <path class="cls-1" d="M103.01,6.11c-.7-2.2-2.9-3.3-4.9-2.5s-3.1,3.1-2.4,5.2,2.9,3.3,4.9,2.5,3.1-3.1,2.4-5.2Z"/>
          <path class="cls-1" d="M93.81,20.41l3.2-9.7h0c.7.5,1.6.9,2.4,1h.1l-3.1,10.6-2.7-1.9h.1Z"/>
        </g>
        <g>
          <path class="cls-1" d="M171.81,101.21c2-.9,2.9-3.3,2.1-5.4s-3.1-3.1-5-2.2-2.9,3.3-2.1,5.4,3.1,3.1,5,2.2Z"/>
          <path class="cls-1" d="M156.71,91.61l10.5,3.5h0c-.4.9-.6,1.9-.6,2.9h0l-9.9-2.8v-.2"/>
        </g>
      </g>
    </g>
  </g>
</svg>